<svg width="88" height="88" viewBox="0 0 88 88" fill="none" xmlns="http://www.w3.org/2000/svg">
<g clip-path="url(#clip0_106_390)">
<path d="M0 71.3371V16.0216C0 14.9691 0.0567796 13.9166 0.283898 12.9225C0.511016 11.9285 0.794914 10.876 1.19237 9.94042C1.58983 9.00485 2.04406 8.06928 2.61186 7.13371C3.17966 6.19814 3.86101 5.43799 4.54237 4.67784C5.2805 3.91769 6.07541 3.27449 6.92711 2.68976C7.7788 2.10503 8.68727 1.57877 9.65253 1.22793C10.6178 0.818623 11.583 0.526258 12.5483 0.292365C13.5703 0.0584731 14.5356 0 15.5576 0H72.4507C73.4728 0 74.4948 0.0584731 75.46 0.292365C76.4821 0.526258 77.4473 0.818623 78.3558 1.22793C79.2643 1.63725 80.1727 2.10503 81.0812 2.68976C81.9897 3.27449 82.7278 3.97617 83.466 4.67784C84.2041 5.43799 84.8287 6.25662 85.3965 7.13371C85.9643 8.01081 86.4753 8.94638 86.8159 9.94042C87.2134 10.9345 87.4973 11.9285 87.7244 12.9225C87.9515 13.9751 88.0083 14.9691 88.0083 16.0216V71.3371C88.0083 72.3896 87.9515 73.4422 87.7244 74.4362C87.4973 75.4887 87.2134 76.4828 86.8159 77.4183C86.4185 78.4124 85.9643 79.2895 85.3965 80.225C84.8287 81.1606 84.1473 81.9207 83.466 82.6809C82.7278 83.441 81.9329 84.0843 81.0812 84.669C80.2295 85.2537 79.3211 85.78 78.3558 86.1308C77.3905 86.5401 76.4253 86.8325 75.46 87.0664C74.438 87.3003 73.4728 87.3587 72.4507 87.3587H15.6144C14.5923 87.3587 13.5703 87.3003 12.6051 87.0664C11.583 86.8325 10.6178 86.5401 9.70931 86.1308C8.74405 85.7215 7.89236 85.2537 6.98389 84.669C6.07541 84.0843 5.33728 83.3826 4.59914 82.6809C3.86101 81.9207 3.23643 81.1021 2.66864 80.225C2.10084 79.3479 1.58983 78.4124 1.24915 77.4183C0.851694 76.4243 0.567796 75.4302 0.340677 74.4362C0.113559 73.5006 0 72.4481 0 71.3371H0Z" fill="black"/>
<path d="M31.1722 64.0864C29.0146 64.0864 27.0273 63.8525 25.2671 63.5017C23.5069 63.1508 22.0307 62.6246 20.7815 62.0398C20.4408 61.8644 20.3273 61.5136 20.3273 61.0458V53.9121C20.3273 53.7367 20.3841 53.6782 20.4976 53.5612C20.5544 53.5028 20.7247 53.5028 20.8383 53.6197C22.4849 54.6722 24.1883 55.4324 26.0052 55.9586C27.8222 56.4849 29.5824 56.7188 31.3425 56.7188C33.5569 56.7188 35.1468 56.368 36.112 55.6663C37.0773 54.9646 37.5315 54.0875 37.5315 53.035C37.5315 52.3333 37.3612 51.7486 37.0773 51.2223C36.7366 50.6961 36.2256 50.1698 35.4307 49.6436C34.6357 49.1173 33.6137 48.591 32.251 48.0648L29.3552 46.7784C26.9705 45.7259 25.1536 44.6149 23.7908 43.4454C22.4281 42.276 21.5197 40.9895 21.0654 39.6447C20.5544 38.2998 20.2705 36.838 20.2705 35.2592C20.2705 33.0957 20.7815 31.1076 21.8036 29.4119C22.8824 27.6577 24.3586 26.2543 26.4595 25.2603C28.5035 24.2662 31.1154 23.74 34.1815 23.74C35.9984 23.74 37.7586 23.8569 39.4052 24.0908C40.995 24.3247 42.301 24.734 43.2662 25.2018C43.5501 25.3772 43.6637 25.6111 43.6637 25.962V32.7448C43.6637 32.8033 43.6069 32.9203 43.4933 32.9787C43.4366 33.0372 43.2662 33.0372 43.1527 32.9203C42.0171 32.2771 40.5976 31.8093 39.1213 31.4C37.5883 31.1661 35.9417 30.9907 34.2951 30.9907C33.2162 30.9907 32.1942 31.0491 31.4561 31.283C30.6612 31.5169 30.0366 31.7508 29.5824 32.0432C29.1281 32.3355 28.7307 32.7448 28.5035 33.1542C28.2764 33.6219 28.1629 34.0897 28.1629 34.5575C28.1629 35.2007 28.3332 35.7854 28.6739 36.2532C29.0146 36.7795 29.6391 37.2473 30.434 37.7735C31.229 38.2998 32.3646 38.8845 33.784 39.5277L35.9417 40.3463C38.4967 41.4573 40.484 42.5683 41.9035 43.7963C43.323 45.0242 44.345 46.3106 44.9128 47.7724C45.4806 49.2342 45.7645 50.6961 45.7645 52.3918C45.7645 54.7307 45.14 56.8357 43.9476 58.5899C42.6984 60.3441 41.0518 61.7475 38.8942 62.683C36.7366 63.6186 34.1247 64.0864 31.1722 64.0864ZM65.4103 57.5959V62.5076C65.4103 62.9169 65.2399 63.2093 64.956 63.2678C64.2179 63.5017 63.423 63.6771 62.6281 63.8525C61.8332 64.0279 60.8679 64.0864 59.8459 64.0864C57.2908 64.0864 55.3603 63.3847 53.884 62.0398C52.4645 60.695 51.7264 58.473 51.7264 55.4909V40.6972H48.2628C47.9222 40.6972 47.8086 40.5218 47.8086 40.1709V34.2067C47.8086 33.8558 47.9789 33.7389 48.3196 33.7389H51.7832C51.8399 33.0372 51.8399 32.2771 51.9535 31.4C52.0103 30.5229 52.0671 29.5873 52.1806 28.7102C52.2374 27.8331 52.351 27.073 52.4077 26.4882C52.4645 26.3713 52.4645 26.2543 52.5781 26.1374C52.6349 26.0789 52.7484 25.962 52.862 25.9035L59.7891 25.0264C59.9026 24.9679 60.0162 24.9679 60.073 25.0264C60.1298 25.0849 60.1865 25.2018 60.1865 25.3772C60.1298 26.3128 60.073 27.5407 60.0162 29.1195C59.9594 30.6983 59.9594 32.2186 59.9026 33.7389H65.2967C65.5238 33.7389 65.6374 33.9143 65.6374 34.2067V40.2879C65.6374 40.5218 65.5806 40.6387 65.3535 40.6972H59.8459V53.5028C59.8459 54.8477 60.073 55.8417 60.5272 56.4264C60.9815 57.0112 61.7764 57.3035 62.9687 57.3035C63.3094 57.3035 63.6501 57.3035 63.934 57.2451C64.2747 57.2451 64.5586 57.1866 64.8993 57.1866C65.0128 57.1281 65.1264 57.1281 65.2399 57.2451C65.3535 57.3035 65.4103 57.4205 65.4103 57.5959Z" fill="white"/>
</g>
<defs>
<clipPath id="clip0_106_390">
<rect width="88" height="87.4172" fill="white"/>
</clipPath>
</defs>
</svg>
