<svg width="88" height="88" viewBox="0 0 88 88" fill="none" xmlns="http://www.w3.org/2000/svg">
<path d="M50.1205 63.8642C58.9486 63.8642 66.1052 56.7076 66.1052 47.8795C66.1052 39.0514 58.9486 31.8948 50.1205 31.8948C41.2923 31.8948 34.1357 39.0514 34.1357 47.8795C34.1357 56.7076 41.2923 63.8642 50.1205 63.8642Z" stroke="black" stroke-width="2.57812" stroke-miterlimit="10" stroke-linecap="round" stroke-linejoin="round"/>
<path d="M50.1209 68.8266C61.6897 68.8266 71.068 59.4482 71.068 47.8795C71.068 36.3107 61.6897 26.9324 50.1209 26.9324C38.5522 26.9324 29.1738 36.3107 29.1738 47.8795C29.1738 59.4482 38.5522 68.8266 50.1209 68.8266Z" stroke="black" stroke-width="2.57812" stroke-miterlimit="10" stroke-linecap="round" stroke-linejoin="round"/>
<path d="M55.4148 38.7166C58.5754 40.5463 60.7015 43.9646 60.7015 47.8794C60.7015 52.376 57.8963 56.2176 53.9404 57.7493" stroke="black" stroke-width="2.57812" stroke-miterlimit="10" stroke-linecap="round" stroke-linejoin="round"/>
<path d="M50.8565 58.4346C50.6135 58.4512 50.3682 58.4597 50.1211 58.4597" stroke="black" stroke-width="2.57812" stroke-miterlimit="10" stroke-linecap="round" stroke-linejoin="round"/>
<path d="M5.58424 23.9896L7.90301 22.3795C9.10476 21.5448 10.533 21.0976 11.9962 21.0976H27.4345C28.5641 21.0976 29.6586 20.705 30.5307 19.987L36.0687 13.0599C37.1279 11.7351 38.6939 10.8807 40.3886 10.8071C40.4771 10.8033 40.5658 10.8013 40.6547 10.8013H59.5062C59.597 10.8013 59.6874 10.8033 59.7776 10.8073C61.4362 10.8807 62.974 11.6983 64.0339 12.976L70.0503 20.2281C70.9167 20.928 71.9969 21.3097 73.1108 21.3097H77.5428C79.1218 21.3097 80.6381 21.9278 81.7672 23.0317C82.9297 24.1685 83.5852 25.7259 83.5852 27.352V68.9009C83.5852 70.4804 82.9667 71.997 81.8622 73.1262L81.7835 73.2067C80.6467 74.3687 79.0899 75.0236 77.4643 75.0236H27.1274C25.4633 75.0236 23.8322 75.4868 22.4165 76.3613C21.0007 77.2358 19.3696 77.699 17.7056 77.699H13.4953C11.0982 77.699 8.80088 76.7389 7.11668 75.0332L4.96635 72.8554C4.15768 72.0364 3.7041 70.9317 3.7041 69.7807V27.584C3.7041 26.1502 4.40655 24.8074 5.58424 23.9896Z" stroke="black" stroke-width="2.57812" stroke-miterlimit="10" stroke-linecap="round" stroke-linejoin="round"/>
<path d="M26.5327 20.8268L26.5377 17.7363C26.5392 16.8076 25.849 16.054 24.9972 16.054H14.8902C14.0405 16.054 13.3511 16.804 13.3497 17.7303L13.3447 20.8268" stroke="black" stroke-width="2.57812" stroke-miterlimit="10" stroke-linecap="round" stroke-linejoin="round"/>
<path d="M9.15723 28.3681H21.7163L25.6491 26.9321" stroke="black" stroke-width="2.57812" stroke-miterlimit="10" stroke-linecap="round" stroke-linejoin="round"/>
<path d="M39.6074 17.5151L42.4437 22.0246H57.7409L60.635 17.5151" stroke="black" stroke-width="2.57812" stroke-miterlimit="10" stroke-linecap="round" stroke-linejoin="round"/>
<path d="M21.8184 28.3682V69.606" stroke="black" stroke-width="2.57812" stroke-miterlimit="10" stroke-linecap="round" stroke-linejoin="round"/>
</svg>
