<svg width="88" height="88" viewBox="0 0 88 88" fill="none" xmlns="http://www.w3.org/2000/svg">
<path d="M49.3281 58.7236H46.0625V61.4736H49.3281V58.7236Z" fill="black"/>
<path d="M65.3704 58.7236H52.5361V61.4736H65.3704V58.7236Z" fill="black"/>
<path d="M60.8529 78.3751H27.1489L25.9307 69.2039H62.0698L60.8529 78.3751ZM29.5579 75.6251H58.4439L58.9307 71.9539H29.0712L29.5579 75.6251Z" fill="black"/>
<path d="M57.4892 86.1987H30.5117V75.625H57.4892V86.1987ZM33.2617 83.4487H54.7392V78.375H33.2617V83.4487Z" fill="black"/>
<path d="M68.3243 45.7188H19.6768V13.75H68.3243V45.7188ZM22.4268 42.9688H65.5743V16.5H27.0193C26.9698 16.5082 26.89 16.5138 26.813 16.5138L22.4268 16.5V42.9688Z" fill="black"/>
<path d="M26.8125 16.5138H25.4375V13.75H27.0187V15.125H28.1875L27.0187 15.136V16.5C26.9692 16.5082 26.8909 16.5138 26.8125 16.5138Z" fill="black"/>
<path d="M61.1875 16.5138L60.951 16.5L60.9661 15.1388L59.8125 15.125H60.9661L60.9812 13.75H62.5625V16.5L61.1875 16.5138Z" fill="black"/>
<path d="M65.5743 52.0163H22.4268V42.9688H65.5743V52.0163ZM25.1768 49.2663H62.8243V45.7188H25.1768V49.2663Z" fill="black"/>
<path d="M61.188 16.5138L60.9515 16.5C59.3826 16.346 57.6873 16.3337 56.0758 16.3337L33.4543 16.335L31.9253 16.3337C30.3138 16.3337 28.6184 16.346 27.1581 16.4932L27.0193 16.5C26.9698 16.5083 26.89 16.5138 26.813 16.5138L22.4268 16.5V7.04004H65.5743V16.5L61.188 16.5138ZM61.0491 13.75H62.8243V9.79004H25.1768V13.75H26.9519C28.5221 13.596 30.2684 13.5837 31.9253 13.5837L54.5468 13.585L56.0758 13.5837C57.7326 13.5837 59.4803 13.596 61.0491 13.75Z" fill="black"/>
<path d="M65.0551 9.79H22.9443L24.7016 7.5625C27.9988 3.38525 35.5737 0.6875 43.9997 0.6875C52.4257 0.6875 60.0006 3.38662 63.2978 7.5625L65.0551 9.79ZM29.4 7.04H58.5995C55.1578 4.81937 49.7582 3.4375 43.9997 3.4375C38.2412 3.4375 32.8416 4.81937 29.4 7.04Z" fill="black"/>
<path d="M27.5 71.9539H18.2188V49.2664H32.4225V66.6876H29.6725V52.0164H20.9688V69.2039H27.5V71.9539Z" fill="black"/>
<path d="M69.7816 71.9539H60.5004V69.2039H67.0316V52.0164H32.4229V66.6876H29.6729V49.2664H69.7816V71.9539Z" fill="black"/>
<path d="M32.4229 66.6875H29.6729V69.7812H32.4229V66.6875Z" fill="black"/>
<path d="M32.4229 50.0774H29.6729V50.6411H32.4229V50.0774Z" fill="black"/>
<path d="M28.1875 15.1387H25.4375V23.8974H28.1875V15.1387Z" fill="black"/>
<path d="M35.0625 15.125H32.3125V23.8906H35.0625V15.125Z" fill="black"/>
<path d="M41.9375 15.125H39.1875V23.8906H41.9375V15.125Z" fill="black"/>
<path d="M48.8125 15.125H46.0625V23.8906H48.8125V15.125Z" fill="black"/>
<path d="M55.6875 15.125H52.9375V23.8906H55.6875V15.125Z" fill="black"/>
<path d="M62.5625 15.1387H59.8125V23.8974H62.5625V15.1387Z" fill="black"/>
<path d="M28.1875 34.375H25.4375V43.1406H28.1875V34.375Z" fill="black"/>
<path d="M35.0625 34.375H32.3125V43.1406H35.0625V34.375Z" fill="black"/>
<path d="M41.9375 34.375H39.1875V43.1406H41.9375V34.375Z" fill="black"/>
<path d="M48.8125 34.375H46.0625V43.1406H48.8125V34.375Z" fill="black"/>
<path d="M55.6875 34.375H52.9375V43.1406H55.6875V34.375Z" fill="black"/>
<path d="M62.5625 34.375H59.8125V43.1406H62.5625V34.375Z" fill="black"/>
</svg>
