<svg width="46" height="46" viewBox="0 0 46 46" fill="none" xmlns="http://www.w3.org/2000/svg">
<path fill-rule="evenodd" clip-rule="evenodd" d="M23 44C11.402 44 2 34.598 2 23C2 11.402 11.402 2 23 2C34.598 2 44 11.402 44 23C44 34.598 34.598 44 23 44ZM0 23C0 10.2975 10.2975 0 23 0C35.7025 0 46 10.2975 46 23C46 35.7025 35.7025 46 23 46C10.2975 46 0 35.7025 0 23ZM29.4385 23.3984L23.2327 29.6043L17.2124 23.584C16.197 22.5686 16.197 20.9224 17.2124 19.907C18.2277 18.8916 19.874 18.8916 20.8893 19.907L21.8185 20.8362L23.2327 22.2504L24.6469 20.8362L25.7616 19.7215C26.7769 18.7061 28.4232 18.7061 29.4385 19.7215C30.4539 20.7368 30.4539 22.3831 29.4385 23.3984ZM23.2327 19.4219L24.3474 18.3073C26.1438 16.5108 29.0563 16.5108 30.8527 18.3073C32.6491 20.1037 32.6491 23.0162 30.8527 24.8126L24.1674 31.498C24.0827 31.5827 23.9866 31.649 23.8841 31.697C23.4926 32.074 22.8695 32.0696 22.4835 31.6835L15.7981 24.9982C14.0017 23.2018 14.0017 20.2892 15.7981 18.4928C17.5946 16.6964 20.5071 16.6964 22.3035 18.4928L23.2327 19.4219Z" fill="black"/>
</svg>
