<svg width="80" height="84" viewBox="0 0 80 84" fill="none" xmlns="http://www.w3.org/2000/svg">
<path d="M44.125 0.75C38.0845 0.752886 32.1429 2.28442 26.8537 5.20196C21.5645 8.1195 17.0996 12.3281 13.875 17.4359V10.375C13.875 10.0103 13.7301 9.66059 13.4723 9.40273C13.2144 9.14487 12.8647 9 12.5 9V2.125C12.5 1.76033 12.3551 1.41059 12.0973 1.15273C11.8394 0.89487 11.4897 0.750004 11.125 0.75H2.875C2.51033 0.750004 2.16059 0.894871 1.90273 1.15273C1.64487 1.41059 1.5 1.76033 1.5 2.125V9C1.13533 9 0.785594 9.14487 0.527733 9.40273C0.269871 9.66059 0.125004 10.0103 0.125 10.375V24.125C0.125004 24.4897 0.269871 24.8394 0.527733 25.0973C0.785594 25.3551 1.13533 25.5 1.5 25.5H2.875V32.375H1.5C1.13533 32.375 0.785594 32.5199 0.527733 32.7777C0.269871 33.0356 0.125004 33.3853 0.125 33.75V39.25C0.125004 39.6147 0.269871 39.9644 0.527733 40.2223C0.785594 40.4801 1.13533 40.625 1.5 40.625H2.875V44.75C2.875 52.3646 5.13298 59.8082 9.36342 66.1395C13.5939 72.4708 19.6067 77.4054 26.6417 80.3194C33.6767 83.2333 41.4177 83.9958 48.886 82.5102C56.3543 81.0247 63.2143 77.3579 68.5986 71.9736C72.1849 68.4068 75.0281 64.1642 76.9637 59.4913C78.8993 54.8184 79.8888 49.8079 79.875 44.75V36.5C79.875 16.7874 63.8376 0.75 44.125 0.75ZM11.1157 22.75H2.875V11.75H11.125V22.7277L11.1157 22.75ZM4.25 3.5H9.75V9H4.25V3.5ZM5.625 25.5H8.375V32.375H5.625V25.5ZM2.875 35.125H16.625V37.875H2.875V35.125ZM11.125 40.625H13.875V44.75C13.875 59.9136 26.2115 72.25 41.375 72.25C56.5385 72.25 68.875 59.9136 68.875 44.75V37.875C68.8721 35.3232 67.8571 32.8767 66.0527 31.0723C64.2483 29.2679 61.8018 28.2529 59.25 28.25H55.125V25.5H59.25C62.5309 25.5037 65.6764 26.8087 67.9964 29.1286C70.3163 31.4486 71.6213 34.5941 71.625 37.875V44.75C71.625 61.4299 58.0549 75 41.375 75C24.6951 75 11.125 61.4299 11.125 44.75V40.625ZM59.25 22.75H55.125V21.375C55.125 21.0103 54.9801 20.6606 54.7223 20.4027C54.4644 20.1449 54.1147 20 53.75 20H40C39.6353 20 39.2856 20.1449 39.0277 20.4027C38.7699 20.6606 38.625 21.0103 38.625 21.375H31.75C31.3853 21.375 31.0356 21.5199 30.7777 21.7777C30.5199 22.0356 30.375 22.3853 30.375 22.75V31C30.375 31.3647 30.5199 31.7144 30.7777 31.9723C31.0356 32.2301 31.3853 32.375 31.75 32.375H38.625C38.625 32.7397 38.7699 33.0894 39.0277 33.3473C39.2856 33.6051 39.6353 33.75 40 33.75H53.75C54.1147 33.75 54.4644 33.6051 54.7223 33.3473C54.9801 33.0894 55.125 32.7397 55.125 32.375V31H59.25C61.0727 31.0021 62.8202 31.7271 64.1091 33.0159C65.3979 34.3048 66.1229 36.0523 66.125 37.875V44.75C66.125 58.3973 55.0222 69.5 41.375 69.5C27.7278 69.5 16.625 58.3973 16.625 44.75V40.625H18C18.3647 40.625 18.7144 40.4801 18.9723 40.2223C19.2301 39.9644 19.375 39.6147 19.375 39.25V33.75C19.375 33.3853 19.2301 33.0356 18.9723 32.7777C18.7144 32.5199 18.3647 32.375 18 32.375H16.934C17.9216 25.8708 21.2079 19.936 26.1967 15.6474C31.1855 11.3587 37.5462 9.00032 44.125 9C56.056 9 66.2351 16.6382 70.0335 27.2808C68.6284 25.8455 66.9508 24.7053 65.099 23.9272C63.2472 23.1492 61.2586 22.7489 59.25 22.75ZM38.625 29.625H33.125V24.125H38.625V29.625ZM41.375 22.75H52.375V31H41.375V22.75ZM77.125 44.75C77.125 64.4626 61.0876 80.5 41.375 80.5C21.6624 80.5 5.625 64.4626 5.625 44.75V40.625H8.375V44.75C8.375 62.9463 23.1787 77.75 41.375 77.75C59.5713 77.75 74.375 62.9463 74.375 44.75V36.5C74.375 19.8201 60.8049 6.25 44.125 6.25C36.8166 6.25031 29.7554 8.89613 24.2464 13.6985C18.7373 18.5008 15.1529 25.135 14.1555 32.375H11.3808C12.3867 24.4003 16.2682 17.0667 22.2969 11.7504C28.3256 6.43407 36.0871 3.50045 44.125 3.5C62.3213 3.5 77.125 18.3037 77.125 36.5V44.75Z" fill="black"/>
</svg>
