<svg width="1440" height="60" viewBox="0 0 1440 60" fill="none" xmlns="http://www.w3.org/2000/svg">
<g clip-path="url(#clip0_106_399)">
<rect width="1440" height="60" fill="black"/>
<path d="M-19.418 25.1357V31.165C-19.418 31.6846 -19.2949 32.0833 -19.0488 32.3613C-18.7982 32.6348 -18.4382 32.7715 -17.9688 32.7715C-17.4993 32.7715 -17.1416 32.6348 -16.8955 32.3613C-16.6449 32.0833 -16.5195 31.6846 -16.5195 31.165V25.1357H-13.6211V31.4863C-13.6211 32.6074 -14.0199 33.5029 -14.8174 34.1729C-15.6104 34.8382 -16.6608 35.1709 -17.9688 35.1709C-19.2767 35.1709 -20.3294 34.8382 -21.127 34.1729C-21.9199 33.5029 -22.3164 32.6074 -22.3164 31.4863V25.1357H-19.418ZM-12.5273 32.0947H-9.78613C-9.74512 32.3682 -9.5765 32.5915 -9.28027 32.7646C-8.98405 32.9378 -8.6377 33.0244 -8.24121 33.0244C-7.81283 33.0244 -7.47331 32.9469 -7.22266 32.792C-6.96745 32.637 -6.83984 32.4388 -6.83984 32.1973C-6.83984 31.9694 -6.94238 31.7962 -7.14746 31.6777C-7.35254 31.5547 -7.72396 31.4453 -8.26172 31.3496L-9.56738 31.1172C-10.4697 30.9622 -11.1624 30.6341 -11.6455 30.1328C-12.124 29.6315 -12.3633 28.9935 -12.3633 28.2188C-12.3633 27.2344 -11.985 26.446 -11.2285 25.8535C-10.472 25.2611 -9.49674 24.9648 -8.30273 24.9648C-7.00391 24.9648 -5.99674 25.2428 -5.28125 25.7988C-4.56576 26.3548 -4.20345 27.1159 -4.19434 28.082H-6.83984C-6.84896 27.7812 -6.98568 27.5443 -7.25 27.3711C-7.51432 27.1934 -7.84701 27.1045 -8.24805 27.1045C-8.6263 27.1045 -8.92708 27.1774 -9.15039 27.3232C-9.3737 27.4691 -9.48535 27.665 -9.48535 27.9111C-9.48535 28.1436 -9.38053 28.3281 -9.1709 28.4648C-8.96126 28.6016 -8.61947 28.7109 -8.14551 28.793L-6.79199 29.0254C-5.83496 29.194 -5.12858 29.5107 -4.67285 29.9756C-4.21257 30.4359 -3.98242 31.0671 -3.98242 31.8691C-3.98242 32.8763 -4.37435 33.6784 -5.1582 34.2754C-5.9375 34.8724 -6.9834 35.1709 -8.2959 35.1709C-9.62663 35.1709 -10.6634 34.9043 -11.4062 34.3711C-12.1491 33.8333 -12.5228 33.0745 -12.5273 32.0947ZM4.07031 32.6963V35H-2.88867V25.1357H4.07031V27.4395H0.00976562V29.0322H3.81738V31.1104H0.00976562V32.6963H4.07031ZM12.7451 35.1709C11.223 35.1709 10.0267 34.7243 9.15625 33.8311C8.28581 32.9333 7.85059 31.6777 7.85059 30.0645C7.85059 28.4512 8.28581 27.1979 9.15625 26.3047C10.0267 25.4115 11.223 24.9648 12.7451 24.9648C13.6064 24.9648 14.3835 25.138 15.0762 25.4844C15.7734 25.8307 16.3226 26.3206 16.7236 26.9541C17.1247 27.5876 17.3252 28.3053 17.3252 29.1074H14.5498C14.5179 28.5469 14.3356 28.0957 14.0029 27.7539C13.6702 27.4121 13.251 27.2412 12.7451 27.2412C12.1481 27.2412 11.6742 27.4919 11.3232 27.9932C10.9769 28.4945 10.8037 29.1826 10.8037 30.0576C10.8037 30.9463 10.9769 31.6413 11.3232 32.1426C11.6696 32.6439 12.1458 32.8945 12.752 32.8945C13.2533 32.8945 13.668 32.7259 13.9961 32.3887C14.3288 32.0469 14.5179 31.5911 14.5635 31.0215H17.3389C17.3343 31.8281 17.1338 32.5482 16.7373 33.1816C16.3454 33.8151 15.8008 34.305 15.1035 34.6514C14.4108 34.9977 13.6247 35.1709 12.7451 35.1709ZM19.54 26.3389C20.4333 25.4229 21.6432 24.9648 23.1699 24.9648C24.6966 24.9648 25.9066 25.4229 26.7998 26.3389C27.693 27.2549 28.1396 28.499 28.1396 30.0713C28.1396 31.6436 27.693 32.8877 26.7998 33.8037C25.9066 34.7152 24.6966 35.1709 23.1699 35.1709C21.6387 35.1709 20.4264 34.7152 19.5332 33.8037C18.6445 32.8877 18.2002 31.6436 18.2002 30.0713C18.2002 28.499 18.6468 27.2549 19.54 26.3389ZM24.6328 28.0342C24.2637 27.5283 23.776 27.2754 23.1699 27.2754C22.5638 27.2754 22.0762 27.5283 21.707 28.0342C21.3379 28.54 21.1533 29.2191 21.1533 30.0713C21.1533 30.9189 21.3356 31.5957 21.7002 32.1016C22.0693 32.6074 22.5592 32.8604 23.1699 32.8604C23.7806 32.8604 24.2682 32.6074 24.6328 32.1016C25.002 31.5957 25.1865 30.9189 25.1865 30.0713C25.1865 29.2191 25.002 28.54 24.6328 28.0342ZM29.2676 25.1357H33.4854C34.9938 25.1357 36.1628 25.555 36.9922 26.3936C37.8216 27.2275 38.2363 28.4284 38.2363 29.9961C38.2363 31.5729 37.8171 32.8011 36.9785 33.6807C36.1445 34.5602 34.9801 35 33.4854 35H29.2676V25.1357ZM32.166 27.4395V32.6963H33.0752C34.5472 32.6963 35.2832 31.7962 35.2832 29.9961C35.2832 29.1712 35.0895 28.54 34.7021 28.1025C34.3193 27.6605 33.777 27.4395 33.0752 27.4395H32.166ZM46.3301 32.6963V35H39.3711V25.1357H46.3301V27.4395H42.2695V29.0322H46.0771V31.1104H42.2695V32.6963H46.3301ZM53.248 35H50.3496V25.1357H57.2812V27.4395H53.248V29.333H56.8984V31.5068H53.248V35ZM61.2051 27.2754V29.7773H62.4014C62.807 29.7773 63.126 29.6634 63.3584 29.4355C63.5954 29.2077 63.7139 28.9069 63.7139 28.5332C63.7139 28.1641 63.5931 27.8633 63.3516 27.6309C63.11 27.3939 62.7956 27.2754 62.4082 27.2754H61.2051ZM61.2051 31.6914V35H58.3066V25.1357H62.6885C63.9919 25.1357 64.9808 25.4274 65.6553 26.0107C66.3343 26.5941 66.6738 27.4189 66.6738 28.4854C66.6738 29.0824 66.5326 29.6338 66.25 30.1396C65.972 30.6455 65.5824 31.0192 65.0811 31.2607L66.9541 35H63.7139L62.1553 31.6914H61.2051ZM70.748 35H67.8496V25.1357H70.748V35ZM72.1152 25.1357H76.333C77.8415 25.1357 79.0104 25.555 79.8398 26.3936C80.6693 27.2275 81.084 28.4284 81.084 29.9961C81.084 31.5729 80.6647 32.8011 79.8262 33.6807C78.9922 34.5602 77.8278 35 76.333 35H72.1152V25.1357ZM75.0137 27.4395V32.6963H75.9229C77.3949 32.6963 78.1309 31.7962 78.1309 29.9961C78.1309 29.1712 77.9372 28.54 77.5498 28.1025C77.167 27.6605 76.6247 27.4395 75.9229 27.4395H75.0137ZM88.1797 35L87.667 33.0381H84.6592L84.1465 35H81.1934L84.4131 25.1357H88.0498L91.2695 35H88.1797ZM86.1357 27.4121L85.1855 30.9941H87.1406L86.1904 27.4121H86.1357ZM96.4443 35H93.5459V31.876L90.1758 25.1357H93.2725L95.002 29.1348H95.0566L96.7861 25.1357H99.8145L96.4443 31.876V35ZM104.668 35.2734C103.497 35.2734 102.535 34.9727 101.783 34.3711C101.036 33.7695 100.658 32.9971 100.648 32.0537H103.253C103.312 32.359 103.474 32.6074 103.738 32.7988C104.007 32.9902 104.324 33.0859 104.688 33.0859C105.099 33.0859 105.429 32.9561 105.68 32.6963C105.935 32.4365 106.062 32.1016 106.062 31.6914C106.062 31.2585 105.937 30.9098 105.687 30.6455C105.436 30.3812 105.103 30.249 104.688 30.249C104.41 30.249 104.153 30.3128 103.916 30.4404C103.679 30.5635 103.488 30.7389 103.342 30.9668H100.806L101.243 25.1357H108.141V27.3232H103.472L103.321 29.5107H103.376C103.558 29.137 103.836 28.8431 104.21 28.6289C104.588 28.4147 105.037 28.3076 105.557 28.3076C106.491 28.3076 107.261 28.6198 107.867 29.2441C108.473 29.8639 108.776 30.6569 108.776 31.623C108.776 32.7214 108.4 33.6055 107.648 34.2754C106.896 34.9408 105.903 35.2734 104.668 35.2734ZM114.061 35.2734C112.721 35.2734 111.661 34.8086 110.882 33.8789C110.103 32.9447 109.713 31.6663 109.713 30.0439C109.713 28.417 110.103 27.1455 110.882 26.2295C111.666 25.3135 112.725 24.8555 114.061 24.8555C115.396 24.8555 116.453 25.3135 117.232 26.2295C118.012 27.141 118.401 28.4102 118.401 30.0371C118.401 31.6595 118.012 32.9378 117.232 33.8721C116.453 34.8063 115.396 35.2734 114.061 35.2734ZM113.049 32.2793C113.304 32.7897 113.641 33.0449 114.061 33.0449C114.48 33.0449 114.815 32.7897 115.065 32.2793C115.321 31.7689 115.448 31.0238 115.448 30.0439C115.448 29.0641 115.323 28.3258 115.072 27.8291C114.822 27.3324 114.484 27.084 114.061 27.084C113.637 27.084 113.297 27.3324 113.042 27.8291C112.791 28.3258 112.666 29.0641 112.666 30.0439C112.666 31.0238 112.794 31.7689 113.049 32.2793ZM125.176 35H122.277V25.1357H129.209V27.4395H125.176V29.333H128.826V31.5068H125.176V35ZM131.335 26.3389C132.228 25.4229 133.438 24.9648 134.965 24.9648C136.492 24.9648 137.701 25.4229 138.595 26.3389C139.488 27.2549 139.935 28.499 139.935 30.0713C139.935 31.6436 139.488 32.8877 138.595 33.8037C137.701 34.7152 136.492 35.1709 134.965 35.1709C133.434 35.1709 132.221 34.7152 131.328 33.8037C130.439 32.8877 129.995 31.6436 129.995 30.0713C129.995 28.499 130.442 27.2549 131.335 26.3389ZM136.428 28.0342C136.059 27.5283 135.571 27.2754 134.965 27.2754C134.359 27.2754 133.871 27.5283 133.502 28.0342C133.133 28.54 132.948 29.2191 132.948 30.0713C132.948 30.9189 133.131 31.5957 133.495 32.1016C133.864 32.6074 134.354 32.8604 134.965 32.8604C135.576 32.8604 136.063 32.6074 136.428 32.1016C136.797 31.5957 136.981 30.9189 136.981 30.0713C136.981 29.2191 136.797 28.54 136.428 28.0342ZM143.961 27.2754V29.7773H145.157C145.563 29.7773 145.882 29.6634 146.114 29.4355C146.351 29.2077 146.47 28.9069 146.47 28.5332C146.47 28.1641 146.349 27.8633 146.107 27.6309C145.866 27.3939 145.551 27.2754 145.164 27.2754H143.961ZM143.961 31.6914V35H141.062V25.1357H145.444C146.748 25.1357 147.737 25.4274 148.411 26.0107C149.09 26.5941 149.43 27.4189 149.43 28.4854C149.43 29.0824 149.288 29.6338 149.006 30.1396C148.728 30.6455 148.338 31.0192 147.837 31.2607L149.71 35H146.47L144.911 31.6914H143.961ZM157.373 35.2734C156.202 35.2734 155.24 34.9727 154.488 34.3711C153.741 33.7695 153.363 32.9971 153.354 32.0537H155.958C156.017 32.359 156.179 32.6074 156.443 32.7988C156.712 32.9902 157.029 33.0859 157.394 33.0859C157.804 33.0859 158.134 32.9561 158.385 32.6963C158.64 32.4365 158.768 32.1016 158.768 31.6914C158.768 31.2585 158.642 30.9098 158.392 30.6455C158.141 30.3812 157.808 30.249 157.394 30.249C157.116 30.249 156.858 30.3128 156.621 30.4404C156.384 30.5635 156.193 30.7389 156.047 30.9668H153.511L153.948 25.1357H160.846V27.3232H156.177L156.026 29.5107H156.081C156.263 29.137 156.541 28.8431 156.915 28.6289C157.293 28.4147 157.742 28.3076 158.262 28.3076C159.196 28.3076 159.966 28.6198 160.572 29.2441C161.178 29.8639 161.481 30.6569 161.481 31.623C161.481 32.7214 161.105 33.6055 160.354 34.2754C159.602 34.9408 158.608 35.2734 157.373 35.2734ZM166.766 35.2734C165.426 35.2734 164.366 34.8086 163.587 33.8789C162.808 32.9447 162.418 31.6663 162.418 30.0439C162.418 28.417 162.808 27.1455 163.587 26.2295C164.371 25.3135 165.43 24.8555 166.766 24.8555C168.101 24.8555 169.158 25.3135 169.938 26.2295C170.717 27.141 171.106 28.4102 171.106 30.0371C171.106 31.6595 170.717 32.9378 169.938 33.8721C169.158 34.8063 168.101 35.2734 166.766 35.2734ZM165.754 32.2793C166.009 32.7897 166.346 33.0449 166.766 33.0449C167.185 33.0449 167.52 32.7897 167.771 32.2793C168.026 31.7689 168.153 31.0238 168.153 30.0439C168.153 29.0641 168.028 28.3258 167.777 27.8291C167.527 27.3324 167.189 27.084 166.766 27.084C166.342 27.084 166.002 27.3324 165.747 27.8291C165.496 28.3258 165.371 29.0641 165.371 30.0439C165.371 31.0238 165.499 31.7689 165.754 32.2793ZM176.11 25.5938C176.543 26.0677 176.76 26.7171 176.76 27.542C176.76 28.3669 176.543 29.0163 176.11 29.4902C175.677 29.9642 175.085 30.2012 174.333 30.2012C173.581 30.2012 172.989 29.9642 172.556 29.4902C172.123 29.0163 171.906 28.3669 171.906 27.542C171.906 26.7171 172.123 26.0677 172.556 25.5938C172.989 25.1198 173.581 24.8828 174.333 24.8828C175.085 24.8828 175.677 25.1198 176.11 25.5938ZM173.991 28.3281C174.073 28.5195 174.187 28.6152 174.333 28.6152C174.479 28.6152 174.59 28.5195 174.668 28.3281C174.75 28.1367 174.791 27.8678 174.791 27.5215C174.791 27.1751 174.75 26.9062 174.668 26.7148C174.59 26.5234 174.479 26.4277 174.333 26.4277C174.187 26.4277 174.073 26.5234 173.991 26.7148C173.914 26.9062 173.875 27.1751 173.875 27.5215C173.875 27.8678 173.914 28.1367 173.991 28.3281ZM175.393 35H173.273L177.122 29.7158L180.458 25.1357H182.577L178.838 30.2695L175.393 35ZM183.295 30.5703C183.728 31.0443 183.944 31.6937 183.944 32.5186C183.944 33.3434 183.728 33.9928 183.295 34.4668C182.862 34.9408 182.27 35.1777 181.518 35.1777C180.766 35.1777 180.173 34.9408 179.74 34.4668C179.307 33.9928 179.091 33.3434 179.091 32.5186C179.091 31.6937 179.307 31.0443 179.74 30.5703C180.173 30.0964 180.766 29.8594 181.518 29.8594C182.27 29.8594 182.862 30.0964 183.295 30.5703ZM181.176 33.3047C181.258 33.4961 181.372 33.5918 181.518 33.5918C181.663 33.5918 181.775 33.4961 181.853 33.3047C181.935 33.1133 181.976 32.8444 181.976 32.498C181.976 32.1517 181.935 31.8828 181.853 31.6914C181.775 31.5 181.663 31.4043 181.518 31.4043C181.372 31.4043 181.258 31.5 181.176 31.6914C181.098 31.8828 181.06 32.1517 181.06 32.498C181.06 32.8444 181.098 33.1133 181.176 33.3047ZM188.675 26.3389C189.568 25.4229 190.778 24.9648 192.305 24.9648C193.831 24.9648 195.041 25.4229 195.935 26.3389C196.828 27.2549 197.274 28.499 197.274 30.0713C197.274 31.6436 196.828 32.8877 195.935 33.8037C195.041 34.7152 193.831 35.1709 192.305 35.1709C190.773 35.1709 189.561 34.7152 188.668 33.8037C187.779 32.8877 187.335 31.6436 187.335 30.0713C187.335 28.499 187.782 27.2549 188.675 26.3389ZM193.768 28.0342C193.398 27.5283 192.911 27.2754 192.305 27.2754C191.699 27.2754 191.211 27.5283 190.842 28.0342C190.473 28.54 190.288 29.2191 190.288 30.0713C190.288 30.9189 190.47 31.5957 190.835 32.1016C191.204 32.6074 191.694 32.8604 192.305 32.8604C192.915 32.8604 193.403 32.6074 193.768 32.1016C194.137 31.5957 194.321 30.9189 194.321 30.0713C194.321 29.2191 194.137 28.54 193.768 28.0342ZM201.301 35H198.402V25.1357H205.334V27.4395H201.301V29.333H204.951V31.5068H201.301V35ZM209.258 35H206.359V25.1357H213.291V27.4395H209.258V29.333H212.908V31.5068H209.258V35Z" fill="white"/>
<path d="M242.582 25.1357V31.165C242.582 31.6846 242.705 32.0833 242.951 32.3613C243.202 32.6348 243.562 32.7715 244.031 32.7715C244.501 32.7715 244.858 32.6348 245.104 32.3613C245.355 32.0833 245.48 31.6846 245.48 31.165V25.1357H248.379V31.4863C248.379 32.6074 247.98 33.5029 247.183 34.1729C246.39 34.8382 245.339 35.1709 244.031 35.1709C242.723 35.1709 241.671 34.8382 240.873 34.1729C240.08 33.5029 239.684 32.6074 239.684 31.4863V25.1357H242.582ZM249.473 32.0947H252.214C252.255 32.3682 252.424 32.5915 252.72 32.7646C253.016 32.9378 253.362 33.0244 253.759 33.0244C254.187 33.0244 254.527 32.9469 254.777 32.792C255.033 32.637 255.16 32.4388 255.16 32.1973C255.16 31.9694 255.058 31.7962 254.853 31.6777C254.647 31.5547 254.276 31.4453 253.738 31.3496L252.433 31.1172C251.53 30.9622 250.838 30.6341 250.354 30.1328C249.876 29.6315 249.637 28.9935 249.637 28.2188C249.637 27.2344 250.015 26.446 250.771 25.8535C251.528 25.2611 252.503 24.9648 253.697 24.9648C254.996 24.9648 256.003 25.2428 256.719 25.7988C257.434 26.3548 257.797 27.1159 257.806 28.082H255.16C255.151 27.7812 255.014 27.5443 254.75 27.3711C254.486 27.1934 254.153 27.1045 253.752 27.1045C253.374 27.1045 253.073 27.1774 252.85 27.3232C252.626 27.4691 252.515 27.665 252.515 27.9111C252.515 28.1436 252.619 28.3281 252.829 28.4648C253.039 28.6016 253.381 28.7109 253.854 28.793L255.208 29.0254C256.165 29.194 256.871 29.5107 257.327 29.9756C257.787 30.4359 258.018 31.0671 258.018 31.8691C258.018 32.8763 257.626 33.6784 256.842 34.2754C256.062 34.8724 255.017 35.1709 253.704 35.1709C252.373 35.1709 251.337 34.9043 250.594 34.3711C249.851 33.8333 249.477 33.0745 249.473 32.0947ZM266.07 32.6963V35H259.111V25.1357H266.07V27.4395H262.01V29.0322H265.817V31.1104H262.01V32.6963H266.07ZM274.745 35.1709C273.223 35.1709 272.027 34.7243 271.156 33.8311C270.286 32.9333 269.851 31.6777 269.851 30.0645C269.851 28.4512 270.286 27.1979 271.156 26.3047C272.027 25.4115 273.223 24.9648 274.745 24.9648C275.606 24.9648 276.383 25.138 277.076 25.4844C277.773 25.8307 278.323 26.3206 278.724 26.9541C279.125 27.5876 279.325 28.3053 279.325 29.1074H276.55C276.518 28.5469 276.336 28.0957 276.003 27.7539C275.67 27.4121 275.251 27.2412 274.745 27.2412C274.148 27.2412 273.674 27.4919 273.323 27.9932C272.977 28.4945 272.804 29.1826 272.804 30.0576C272.804 30.9463 272.977 31.6413 273.323 32.1426C273.67 32.6439 274.146 32.8945 274.752 32.8945C275.253 32.8945 275.668 32.7259 275.996 32.3887C276.329 32.0469 276.518 31.5911 276.563 31.0215H279.339C279.334 31.8281 279.134 32.5482 278.737 33.1816C278.345 33.8151 277.801 34.305 277.104 34.6514C276.411 34.9977 275.625 35.1709 274.745 35.1709ZM281.54 26.3389C282.433 25.4229 283.643 24.9648 285.17 24.9648C286.697 24.9648 287.907 25.4229 288.8 26.3389C289.693 27.2549 290.14 28.499 290.14 30.0713C290.14 31.6436 289.693 32.8877 288.8 33.8037C287.907 34.7152 286.697 35.1709 285.17 35.1709C283.639 35.1709 282.426 34.7152 281.533 33.8037C280.645 32.8877 280.2 31.6436 280.2 30.0713C280.2 28.499 280.647 27.2549 281.54 26.3389ZM286.633 28.0342C286.264 27.5283 285.776 27.2754 285.17 27.2754C284.564 27.2754 284.076 27.5283 283.707 28.0342C283.338 28.54 283.153 29.2191 283.153 30.0713C283.153 30.9189 283.336 31.5957 283.7 32.1016C284.069 32.6074 284.559 32.8604 285.17 32.8604C285.781 32.8604 286.268 32.6074 286.633 32.1016C287.002 31.5957 287.187 30.9189 287.187 30.0713C287.187 29.2191 287.002 28.54 286.633 28.0342ZM291.268 25.1357H295.485C296.994 25.1357 298.163 25.555 298.992 26.3936C299.822 27.2275 300.236 28.4284 300.236 29.9961C300.236 31.5729 299.817 32.8011 298.979 33.6807C298.145 34.5602 296.98 35 295.485 35H291.268V25.1357ZM294.166 27.4395V32.6963H295.075C296.547 32.6963 297.283 31.7962 297.283 29.9961C297.283 29.1712 297.09 28.54 296.702 28.1025C296.319 27.6605 295.777 27.4395 295.075 27.4395H294.166ZM308.33 32.6963V35H301.371V25.1357H308.33V27.4395H304.27V29.0322H308.077V31.1104H304.27V32.6963H308.33ZM315.248 35H312.35V25.1357H319.281V27.4395H315.248V29.333H318.898V31.5068H315.248V35ZM323.205 27.2754V29.7773H324.401C324.807 29.7773 325.126 29.6634 325.358 29.4355C325.595 29.2077 325.714 28.9069 325.714 28.5332C325.714 28.1641 325.593 27.8633 325.352 27.6309C325.11 27.3939 324.796 27.2754 324.408 27.2754H323.205ZM323.205 31.6914V35H320.307V25.1357H324.688C325.992 25.1357 326.981 25.4274 327.655 26.0107C328.334 26.5941 328.674 27.4189 328.674 28.4854C328.674 29.0824 328.533 29.6338 328.25 30.1396C327.972 30.6455 327.582 31.0192 327.081 31.2607L328.954 35H325.714L324.155 31.6914H323.205ZM332.748 35H329.85V25.1357H332.748V35ZM334.115 25.1357H338.333C339.841 25.1357 341.01 25.555 341.84 26.3936C342.669 27.2275 343.084 28.4284 343.084 29.9961C343.084 31.5729 342.665 32.8011 341.826 33.6807C340.992 34.5602 339.828 35 338.333 35H334.115V25.1357ZM337.014 27.4395V32.6963H337.923C339.395 32.6963 340.131 31.7962 340.131 29.9961C340.131 29.1712 339.937 28.54 339.55 28.1025C339.167 27.6605 338.625 27.4395 337.923 27.4395H337.014ZM350.18 35L349.667 33.0381H346.659L346.146 35H343.193L346.413 25.1357H350.05L353.27 35H350.18ZM348.136 27.4121L347.186 30.9941H349.141L348.19 27.4121H348.136ZM358.444 35H355.546V31.876L352.176 25.1357H355.272L357.002 29.1348H357.057L358.786 25.1357H361.814L358.444 31.876V35ZM366.668 35.2734C365.497 35.2734 364.535 34.9727 363.783 34.3711C363.036 33.7695 362.658 32.9971 362.648 32.0537H365.253C365.312 32.359 365.474 32.6074 365.738 32.7988C366.007 32.9902 366.324 33.0859 366.688 33.0859C367.099 33.0859 367.429 32.9561 367.68 32.6963C367.935 32.4365 368.062 32.1016 368.062 31.6914C368.062 31.2585 367.937 30.9098 367.687 30.6455C367.436 30.3812 367.103 30.249 366.688 30.249C366.41 30.249 366.153 30.3128 365.916 30.4404C365.679 30.5635 365.488 30.7389 365.342 30.9668H362.806L363.243 25.1357H370.141V27.3232H365.472L365.321 29.5107H365.376C365.558 29.137 365.836 28.8431 366.21 28.6289C366.588 28.4147 367.037 28.3076 367.557 28.3076C368.491 28.3076 369.261 28.6198 369.867 29.2441C370.473 29.8639 370.776 30.6569 370.776 31.623C370.776 32.7214 370.4 33.6055 369.648 34.2754C368.896 34.9408 367.903 35.2734 366.668 35.2734ZM376.061 35.2734C374.721 35.2734 373.661 34.8086 372.882 33.8789C372.103 32.9447 371.713 31.6663 371.713 30.0439C371.713 28.417 372.103 27.1455 372.882 26.2295C373.666 25.3135 374.725 24.8555 376.061 24.8555C377.396 24.8555 378.453 25.3135 379.232 26.2295C380.012 27.141 380.401 28.4102 380.401 30.0371C380.401 31.6595 380.012 32.9378 379.232 33.8721C378.453 34.8063 377.396 35.2734 376.061 35.2734ZM375.049 32.2793C375.304 32.7897 375.641 33.0449 376.061 33.0449C376.48 33.0449 376.815 32.7897 377.065 32.2793C377.321 31.7689 377.448 31.0238 377.448 30.0439C377.448 29.0641 377.323 28.3258 377.072 27.8291C376.822 27.3324 376.484 27.084 376.061 27.084C375.637 27.084 375.297 27.3324 375.042 27.8291C374.791 28.3258 374.666 29.0641 374.666 30.0439C374.666 31.0238 374.794 31.7689 375.049 32.2793ZM387.176 35H384.277V25.1357H391.209V27.4395H387.176V29.333H390.826V31.5068H387.176V35ZM393.335 26.3389C394.228 25.4229 395.438 24.9648 396.965 24.9648C398.492 24.9648 399.701 25.4229 400.595 26.3389C401.488 27.2549 401.935 28.499 401.935 30.0713C401.935 31.6436 401.488 32.8877 400.595 33.8037C399.701 34.7152 398.492 35.1709 396.965 35.1709C395.434 35.1709 394.221 34.7152 393.328 33.8037C392.439 32.8877 391.995 31.6436 391.995 30.0713C391.995 28.499 392.442 27.2549 393.335 26.3389ZM398.428 28.0342C398.059 27.5283 397.571 27.2754 396.965 27.2754C396.359 27.2754 395.871 27.5283 395.502 28.0342C395.133 28.54 394.948 29.2191 394.948 30.0713C394.948 30.9189 395.131 31.5957 395.495 32.1016C395.864 32.6074 396.354 32.8604 396.965 32.8604C397.576 32.8604 398.063 32.6074 398.428 32.1016C398.797 31.5957 398.981 30.9189 398.981 30.0713C398.981 29.2191 398.797 28.54 398.428 28.0342ZM405.961 27.2754V29.7773H407.157C407.563 29.7773 407.882 29.6634 408.114 29.4355C408.351 29.2077 408.47 28.9069 408.47 28.5332C408.47 28.1641 408.349 27.8633 408.107 27.6309C407.866 27.3939 407.551 27.2754 407.164 27.2754H405.961ZM405.961 31.6914V35H403.062V25.1357H407.444C408.748 25.1357 409.737 25.4274 410.411 26.0107C411.09 26.5941 411.43 27.4189 411.43 28.4854C411.43 29.0824 411.288 29.6338 411.006 30.1396C410.728 30.6455 410.338 31.0192 409.837 31.2607L411.71 35H408.47L406.911 31.6914H405.961ZM419.373 35.2734C418.202 35.2734 417.24 34.9727 416.488 34.3711C415.741 33.7695 415.363 32.9971 415.354 32.0537H417.958C418.017 32.359 418.179 32.6074 418.443 32.7988C418.712 32.9902 419.029 33.0859 419.394 33.0859C419.804 33.0859 420.134 32.9561 420.385 32.6963C420.64 32.4365 420.768 32.1016 420.768 31.6914C420.768 31.2585 420.642 30.9098 420.392 30.6455C420.141 30.3812 419.808 30.249 419.394 30.249C419.116 30.249 418.858 30.3128 418.621 30.4404C418.384 30.5635 418.193 30.7389 418.047 30.9668H415.511L415.948 25.1357H422.846V27.3232H418.177L418.026 29.5107H418.081C418.263 29.137 418.541 28.8431 418.915 28.6289C419.293 28.4147 419.742 28.3076 420.262 28.3076C421.196 28.3076 421.966 28.6198 422.572 29.2441C423.178 29.8639 423.481 30.6569 423.481 31.623C423.481 32.7214 423.105 33.6055 422.354 34.2754C421.602 34.9408 420.608 35.2734 419.373 35.2734ZM428.766 35.2734C427.426 35.2734 426.366 34.8086 425.587 33.8789C424.808 32.9447 424.418 31.6663 424.418 30.0439C424.418 28.417 424.808 27.1455 425.587 26.2295C426.371 25.3135 427.43 24.8555 428.766 24.8555C430.101 24.8555 431.158 25.3135 431.938 26.2295C432.717 27.141 433.106 28.4102 433.106 30.0371C433.106 31.6595 432.717 32.9378 431.938 33.8721C431.158 34.8063 430.101 35.2734 428.766 35.2734ZM427.754 32.2793C428.009 32.7897 428.346 33.0449 428.766 33.0449C429.185 33.0449 429.52 32.7897 429.771 32.2793C430.026 31.7689 430.153 31.0238 430.153 30.0439C430.153 29.0641 430.028 28.3258 429.777 27.8291C429.527 27.3324 429.189 27.084 428.766 27.084C428.342 27.084 428.002 27.3324 427.747 27.8291C427.496 28.3258 427.371 29.0641 427.371 30.0439C427.371 31.0238 427.499 31.7689 427.754 32.2793ZM438.11 25.5938C438.543 26.0677 438.76 26.7171 438.76 27.542C438.76 28.3669 438.543 29.0163 438.11 29.4902C437.677 29.9642 437.085 30.2012 436.333 30.2012C435.581 30.2012 434.989 29.9642 434.556 29.4902C434.123 29.0163 433.906 28.3669 433.906 27.542C433.906 26.7171 434.123 26.0677 434.556 25.5938C434.989 25.1198 435.581 24.8828 436.333 24.8828C437.085 24.8828 437.677 25.1198 438.11 25.5938ZM435.991 28.3281C436.073 28.5195 436.187 28.6152 436.333 28.6152C436.479 28.6152 436.59 28.5195 436.668 28.3281C436.75 28.1367 436.791 27.8678 436.791 27.5215C436.791 27.1751 436.75 26.9062 436.668 26.7148C436.59 26.5234 436.479 26.4277 436.333 26.4277C436.187 26.4277 436.073 26.5234 435.991 26.7148C435.914 26.9062 435.875 27.1751 435.875 27.5215C435.875 27.8678 435.914 28.1367 435.991 28.3281ZM437.393 35H435.273L439.122 29.7158L442.458 25.1357H444.577L440.838 30.2695L437.393 35ZM445.295 30.5703C445.728 31.0443 445.944 31.6937 445.944 32.5186C445.944 33.3434 445.728 33.9928 445.295 34.4668C444.862 34.9408 444.27 35.1777 443.518 35.1777C442.766 35.1777 442.173 34.9408 441.74 34.4668C441.307 33.9928 441.091 33.3434 441.091 32.5186C441.091 31.6937 441.307 31.0443 441.74 30.5703C442.173 30.0964 442.766 29.8594 443.518 29.8594C444.27 29.8594 444.862 30.0964 445.295 30.5703ZM443.176 33.3047C443.258 33.4961 443.372 33.5918 443.518 33.5918C443.663 33.5918 443.775 33.4961 443.853 33.3047C443.935 33.1133 443.976 32.8444 443.976 32.498C443.976 32.1517 443.935 31.8828 443.853 31.6914C443.775 31.5 443.663 31.4043 443.518 31.4043C443.372 31.4043 443.258 31.5 443.176 31.6914C443.098 31.8828 443.06 32.1517 443.06 32.498C443.06 32.8444 443.098 33.1133 443.176 33.3047ZM450.675 26.3389C451.568 25.4229 452.778 24.9648 454.305 24.9648C455.831 24.9648 457.041 25.4229 457.935 26.3389C458.828 27.2549 459.274 28.499 459.274 30.0713C459.274 31.6436 458.828 32.8877 457.935 33.8037C457.041 34.7152 455.831 35.1709 454.305 35.1709C452.773 35.1709 451.561 34.7152 450.668 33.8037C449.779 32.8877 449.335 31.6436 449.335 30.0713C449.335 28.499 449.782 27.2549 450.675 26.3389ZM455.768 28.0342C455.398 27.5283 454.911 27.2754 454.305 27.2754C453.699 27.2754 453.211 27.5283 452.842 28.0342C452.473 28.54 452.288 29.2191 452.288 30.0713C452.288 30.9189 452.47 31.5957 452.835 32.1016C453.204 32.6074 453.694 32.8604 454.305 32.8604C454.915 32.8604 455.403 32.6074 455.768 32.1016C456.137 31.5957 456.321 30.9189 456.321 30.0713C456.321 29.2191 456.137 28.54 455.768 28.0342ZM463.301 35H460.402V25.1357H467.334V27.4395H463.301V29.333H466.951V31.5068H463.301V35ZM471.258 35H468.359V25.1357H475.291V27.4395H471.258V29.333H474.908V31.5068H471.258V35Z" fill="white"/>
<path d="M504.582 25.1357V31.165C504.582 31.6846 504.705 32.0833 504.951 32.3613C505.202 32.6348 505.562 32.7715 506.031 32.7715C506.501 32.7715 506.858 32.6348 507.104 32.3613C507.355 32.0833 507.48 31.6846 507.48 31.165V25.1357H510.379V31.4863C510.379 32.6074 509.98 33.5029 509.183 34.1729C508.39 34.8382 507.339 35.1709 506.031 35.1709C504.723 35.1709 503.671 34.8382 502.873 34.1729C502.08 33.5029 501.684 32.6074 501.684 31.4863V25.1357H504.582ZM511.473 32.0947H514.214C514.255 32.3682 514.424 32.5915 514.72 32.7646C515.016 32.9378 515.362 33.0244 515.759 33.0244C516.187 33.0244 516.527 32.9469 516.777 32.792C517.033 32.637 517.16 32.4388 517.16 32.1973C517.16 31.9694 517.058 31.7962 516.853 31.6777C516.647 31.5547 516.276 31.4453 515.738 31.3496L514.433 31.1172C513.53 30.9622 512.838 30.6341 512.354 30.1328C511.876 29.6315 511.637 28.9935 511.637 28.2188C511.637 27.2344 512.015 26.446 512.771 25.8535C513.528 25.2611 514.503 24.9648 515.697 24.9648C516.996 24.9648 518.003 25.2428 518.719 25.7988C519.434 26.3548 519.797 27.1159 519.806 28.082H517.16C517.151 27.7812 517.014 27.5443 516.75 27.3711C516.486 27.1934 516.153 27.1045 515.752 27.1045C515.374 27.1045 515.073 27.1774 514.85 27.3232C514.626 27.4691 514.515 27.665 514.515 27.9111C514.515 28.1436 514.619 28.3281 514.829 28.4648C515.039 28.6016 515.381 28.7109 515.854 28.793L517.208 29.0254C518.165 29.194 518.871 29.5107 519.327 29.9756C519.787 30.4359 520.018 31.0671 520.018 31.8691C520.018 32.8763 519.626 33.6784 518.842 34.2754C518.062 34.8724 517.017 35.1709 515.704 35.1709C514.373 35.1709 513.337 34.9043 512.594 34.3711C511.851 33.8333 511.477 33.0745 511.473 32.0947ZM528.07 32.6963V35H521.111V25.1357H528.07V27.4395H524.01V29.0322H527.817V31.1104H524.01V32.6963H528.07ZM536.745 35.1709C535.223 35.1709 534.027 34.7243 533.156 33.8311C532.286 32.9333 531.851 31.6777 531.851 30.0645C531.851 28.4512 532.286 27.1979 533.156 26.3047C534.027 25.4115 535.223 24.9648 536.745 24.9648C537.606 24.9648 538.383 25.138 539.076 25.4844C539.773 25.8307 540.323 26.3206 540.724 26.9541C541.125 27.5876 541.325 28.3053 541.325 29.1074H538.55C538.518 28.5469 538.336 28.0957 538.003 27.7539C537.67 27.4121 537.251 27.2412 536.745 27.2412C536.148 27.2412 535.674 27.4919 535.323 27.9932C534.977 28.4945 534.804 29.1826 534.804 30.0576C534.804 30.9463 534.977 31.6413 535.323 32.1426C535.67 32.6439 536.146 32.8945 536.752 32.8945C537.253 32.8945 537.668 32.7259 537.996 32.3887C538.329 32.0469 538.518 31.5911 538.563 31.0215H541.339C541.334 31.8281 541.134 32.5482 540.737 33.1816C540.345 33.8151 539.801 34.305 539.104 34.6514C538.411 34.9977 537.625 35.1709 536.745 35.1709ZM543.54 26.3389C544.433 25.4229 545.643 24.9648 547.17 24.9648C548.697 24.9648 549.907 25.4229 550.8 26.3389C551.693 27.2549 552.14 28.499 552.14 30.0713C552.14 31.6436 551.693 32.8877 550.8 33.8037C549.907 34.7152 548.697 35.1709 547.17 35.1709C545.639 35.1709 544.426 34.7152 543.533 33.8037C542.645 32.8877 542.2 31.6436 542.2 30.0713C542.2 28.499 542.647 27.2549 543.54 26.3389ZM548.633 28.0342C548.264 27.5283 547.776 27.2754 547.17 27.2754C546.564 27.2754 546.076 27.5283 545.707 28.0342C545.338 28.54 545.153 29.2191 545.153 30.0713C545.153 30.9189 545.336 31.5957 545.7 32.1016C546.069 32.6074 546.559 32.8604 547.17 32.8604C547.781 32.8604 548.268 32.6074 548.633 32.1016C549.002 31.5957 549.187 30.9189 549.187 30.0713C549.187 29.2191 549.002 28.54 548.633 28.0342ZM553.268 25.1357H557.485C558.994 25.1357 560.163 25.555 560.992 26.3936C561.822 27.2275 562.236 28.4284 562.236 29.9961C562.236 31.5729 561.817 32.8011 560.979 33.6807C560.145 34.5602 558.98 35 557.485 35H553.268V25.1357ZM556.166 27.4395V32.6963H557.075C558.547 32.6963 559.283 31.7962 559.283 29.9961C559.283 29.1712 559.09 28.54 558.702 28.1025C558.319 27.6605 557.777 27.4395 557.075 27.4395H556.166ZM570.33 32.6963V35H563.371V25.1357H570.33V27.4395H566.27V29.0322H570.077V31.1104H566.27V32.6963H570.33ZM577.248 35H574.35V25.1357H581.281V27.4395H577.248V29.333H580.898V31.5068H577.248V35ZM585.205 27.2754V29.7773H586.401C586.807 29.7773 587.126 29.6634 587.358 29.4355C587.595 29.2077 587.714 28.9069 587.714 28.5332C587.714 28.1641 587.593 27.8633 587.352 27.6309C587.11 27.3939 586.796 27.2754 586.408 27.2754H585.205ZM585.205 31.6914V35H582.307V25.1357H586.688C587.992 25.1357 588.981 25.4274 589.655 26.0107C590.334 26.5941 590.674 27.4189 590.674 28.4854C590.674 29.0824 590.533 29.6338 590.25 30.1396C589.972 30.6455 589.582 31.0192 589.081 31.2607L590.954 35H587.714L586.155 31.6914H585.205ZM594.748 35H591.85V25.1357H594.748V35ZM596.115 25.1357H600.333C601.841 25.1357 603.01 25.555 603.84 26.3936C604.669 27.2275 605.084 28.4284 605.084 29.9961C605.084 31.5729 604.665 32.8011 603.826 33.6807C602.992 34.5602 601.828 35 600.333 35H596.115V25.1357ZM599.014 27.4395V32.6963H599.923C601.395 32.6963 602.131 31.7962 602.131 29.9961C602.131 29.1712 601.937 28.54 601.55 28.1025C601.167 27.6605 600.625 27.4395 599.923 27.4395H599.014ZM612.18 35L611.667 33.0381H608.659L608.146 35H605.193L608.413 25.1357H612.05L615.27 35H612.18ZM610.136 27.4121L609.186 30.9941H611.141L610.19 27.4121H610.136ZM620.444 35H617.546V31.876L614.176 25.1357H617.272L619.002 29.1348H619.057L620.786 25.1357H623.814L620.444 31.876V35ZM628.668 35.2734C627.497 35.2734 626.535 34.9727 625.783 34.3711C625.036 33.7695 624.658 32.9971 624.648 32.0537H627.253C627.312 32.359 627.474 32.6074 627.738 32.7988C628.007 32.9902 628.324 33.0859 628.688 33.0859C629.099 33.0859 629.429 32.9561 629.68 32.6963C629.935 32.4365 630.062 32.1016 630.062 31.6914C630.062 31.2585 629.937 30.9098 629.687 30.6455C629.436 30.3812 629.103 30.249 628.688 30.249C628.41 30.249 628.153 30.3128 627.916 30.4404C627.679 30.5635 627.488 30.7389 627.342 30.9668H624.806L625.243 25.1357H632.141V27.3232H627.472L627.321 29.5107H627.376C627.558 29.137 627.836 28.8431 628.21 28.6289C628.588 28.4147 629.037 28.3076 629.557 28.3076C630.491 28.3076 631.261 28.6198 631.867 29.2441C632.473 29.8639 632.776 30.6569 632.776 31.623C632.776 32.7214 632.4 33.6055 631.648 34.2754C630.896 34.9408 629.903 35.2734 628.668 35.2734ZM638.061 35.2734C636.721 35.2734 635.661 34.8086 634.882 33.8789C634.103 32.9447 633.713 31.6663 633.713 30.0439C633.713 28.417 634.103 27.1455 634.882 26.2295C635.666 25.3135 636.725 24.8555 638.061 24.8555C639.396 24.8555 640.453 25.3135 641.232 26.2295C642.012 27.141 642.401 28.4102 642.401 30.0371C642.401 31.6595 642.012 32.9378 641.232 33.8721C640.453 34.8063 639.396 35.2734 638.061 35.2734ZM637.049 32.2793C637.304 32.7897 637.641 33.0449 638.061 33.0449C638.48 33.0449 638.815 32.7897 639.065 32.2793C639.321 31.7689 639.448 31.0238 639.448 30.0439C639.448 29.0641 639.323 28.3258 639.072 27.8291C638.822 27.3324 638.484 27.084 638.061 27.084C637.637 27.084 637.297 27.3324 637.042 27.8291C636.791 28.3258 636.666 29.0641 636.666 30.0439C636.666 31.0238 636.794 31.7689 637.049 32.2793ZM649.176 35H646.277V25.1357H653.209V27.4395H649.176V29.333H652.826V31.5068H649.176V35ZM655.335 26.3389C656.228 25.4229 657.438 24.9648 658.965 24.9648C660.492 24.9648 661.701 25.4229 662.595 26.3389C663.488 27.2549 663.935 28.499 663.935 30.0713C663.935 31.6436 663.488 32.8877 662.595 33.8037C661.701 34.7152 660.492 35.1709 658.965 35.1709C657.434 35.1709 656.221 34.7152 655.328 33.8037C654.439 32.8877 653.995 31.6436 653.995 30.0713C653.995 28.499 654.442 27.2549 655.335 26.3389ZM660.428 28.0342C660.059 27.5283 659.571 27.2754 658.965 27.2754C658.359 27.2754 657.871 27.5283 657.502 28.0342C657.133 28.54 656.948 29.2191 656.948 30.0713C656.948 30.9189 657.131 31.5957 657.495 32.1016C657.864 32.6074 658.354 32.8604 658.965 32.8604C659.576 32.8604 660.063 32.6074 660.428 32.1016C660.797 31.5957 660.981 30.9189 660.981 30.0713C660.981 29.2191 660.797 28.54 660.428 28.0342ZM667.961 27.2754V29.7773H669.157C669.563 29.7773 669.882 29.6634 670.114 29.4355C670.351 29.2077 670.47 28.9069 670.47 28.5332C670.47 28.1641 670.349 27.8633 670.107 27.6309C669.866 27.3939 669.551 27.2754 669.164 27.2754H667.961ZM667.961 31.6914V35H665.062V25.1357H669.444C670.748 25.1357 671.737 25.4274 672.411 26.0107C673.09 26.5941 673.43 27.4189 673.43 28.4854C673.43 29.0824 673.288 29.6338 673.006 30.1396C672.728 30.6455 672.338 31.0192 671.837 31.2607L673.71 35H670.47L668.911 31.6914H667.961ZM681.373 35.2734C680.202 35.2734 679.24 34.9727 678.488 34.3711C677.741 33.7695 677.363 32.9971 677.354 32.0537H679.958C680.017 32.359 680.179 32.6074 680.443 32.7988C680.712 32.9902 681.029 33.0859 681.394 33.0859C681.804 33.0859 682.134 32.9561 682.385 32.6963C682.64 32.4365 682.768 32.1016 682.768 31.6914C682.768 31.2585 682.642 30.9098 682.392 30.6455C682.141 30.3812 681.808 30.249 681.394 30.249C681.116 30.249 680.858 30.3128 680.621 30.4404C680.384 30.5635 680.193 30.7389 680.047 30.9668H677.511L677.948 25.1357H684.846V27.3232H680.177L680.026 29.5107H680.081C680.263 29.137 680.541 28.8431 680.915 28.6289C681.293 28.4147 681.742 28.3076 682.262 28.3076C683.196 28.3076 683.966 28.6198 684.572 29.2441C685.178 29.8639 685.481 30.6569 685.481 31.623C685.481 32.7214 685.105 33.6055 684.354 34.2754C683.602 34.9408 682.608 35.2734 681.373 35.2734ZM690.766 35.2734C689.426 35.2734 688.366 34.8086 687.587 33.8789C686.808 32.9447 686.418 31.6663 686.418 30.0439C686.418 28.417 686.808 27.1455 687.587 26.2295C688.371 25.3135 689.43 24.8555 690.766 24.8555C692.101 24.8555 693.158 25.3135 693.938 26.2295C694.717 27.141 695.106 28.4102 695.106 30.0371C695.106 31.6595 694.717 32.9378 693.938 33.8721C693.158 34.8063 692.101 35.2734 690.766 35.2734ZM689.754 32.2793C690.009 32.7897 690.346 33.0449 690.766 33.0449C691.185 33.0449 691.52 32.7897 691.771 32.2793C692.026 31.7689 692.153 31.0238 692.153 30.0439C692.153 29.0641 692.028 28.3258 691.777 27.8291C691.527 27.3324 691.189 27.084 690.766 27.084C690.342 27.084 690.002 27.3324 689.747 27.8291C689.496 28.3258 689.371 29.0641 689.371 30.0439C689.371 31.0238 689.499 31.7689 689.754 32.2793ZM700.11 25.5938C700.543 26.0677 700.76 26.7171 700.76 27.542C700.76 28.3669 700.543 29.0163 700.11 29.4902C699.677 29.9642 699.085 30.2012 698.333 30.2012C697.581 30.2012 696.989 29.9642 696.556 29.4902C696.123 29.0163 695.906 28.3669 695.906 27.542C695.906 26.7171 696.123 26.0677 696.556 25.5938C696.989 25.1198 697.581 24.8828 698.333 24.8828C699.085 24.8828 699.677 25.1198 700.11 25.5938ZM697.991 28.3281C698.073 28.5195 698.187 28.6152 698.333 28.6152C698.479 28.6152 698.59 28.5195 698.668 28.3281C698.75 28.1367 698.791 27.8678 698.791 27.5215C698.791 27.1751 698.75 26.9062 698.668 26.7148C698.59 26.5234 698.479 26.4277 698.333 26.4277C698.187 26.4277 698.073 26.5234 697.991 26.7148C697.914 26.9062 697.875 27.1751 697.875 27.5215C697.875 27.8678 697.914 28.1367 697.991 28.3281ZM699.393 35H697.273L701.122 29.7158L704.458 25.1357H706.577L702.838 30.2695L699.393 35ZM707.295 30.5703C707.728 31.0443 707.944 31.6937 707.944 32.5186C707.944 33.3434 707.728 33.9928 707.295 34.4668C706.862 34.9408 706.27 35.1777 705.518 35.1777C704.766 35.1777 704.173 34.9408 703.74 34.4668C703.307 33.9928 703.091 33.3434 703.091 32.5186C703.091 31.6937 703.307 31.0443 703.74 30.5703C704.173 30.0964 704.766 29.8594 705.518 29.8594C706.27 29.8594 706.862 30.0964 707.295 30.5703ZM705.176 33.3047C705.258 33.4961 705.372 33.5918 705.518 33.5918C705.663 33.5918 705.775 33.4961 705.853 33.3047C705.935 33.1133 705.976 32.8444 705.976 32.498C705.976 32.1517 705.935 31.8828 705.853 31.6914C705.775 31.5 705.663 31.4043 705.518 31.4043C705.372 31.4043 705.258 31.5 705.176 31.6914C705.098 31.8828 705.06 32.1517 705.06 32.498C705.06 32.8444 705.098 33.1133 705.176 33.3047ZM712.675 26.3389C713.568 25.4229 714.778 24.9648 716.305 24.9648C717.831 24.9648 719.041 25.4229 719.935 26.3389C720.828 27.2549 721.274 28.499 721.274 30.0713C721.274 31.6436 720.828 32.8877 719.935 33.8037C719.041 34.7152 717.831 35.1709 716.305 35.1709C714.773 35.1709 713.561 34.7152 712.668 33.8037C711.779 32.8877 711.335 31.6436 711.335 30.0713C711.335 28.499 711.782 27.2549 712.675 26.3389ZM717.768 28.0342C717.398 27.5283 716.911 27.2754 716.305 27.2754C715.699 27.2754 715.211 27.5283 714.842 28.0342C714.473 28.54 714.288 29.2191 714.288 30.0713C714.288 30.9189 714.47 31.5957 714.835 32.1016C715.204 32.6074 715.694 32.8604 716.305 32.8604C716.915 32.8604 717.403 32.6074 717.768 32.1016C718.137 31.5957 718.321 30.9189 718.321 30.0713C718.321 29.2191 718.137 28.54 717.768 28.0342ZM725.301 35H722.402V25.1357H729.334V27.4395H725.301V29.333H728.951V31.5068H725.301V35ZM733.258 35H730.359V25.1357H737.291V27.4395H733.258V29.333H736.908V31.5068H733.258V35Z" fill="white"/>
<path d="M766.582 25.1357V31.165C766.582 31.6846 766.705 32.0833 766.951 32.3613C767.202 32.6348 767.562 32.7715 768.031 32.7715C768.501 32.7715 768.858 32.6348 769.104 32.3613C769.355 32.0833 769.48 31.6846 769.48 31.165V25.1357H772.379V31.4863C772.379 32.6074 771.98 33.5029 771.183 34.1729C770.39 34.8382 769.339 35.1709 768.031 35.1709C766.723 35.1709 765.671 34.8382 764.873 34.1729C764.08 33.5029 763.684 32.6074 763.684 31.4863V25.1357H766.582ZM773.473 32.0947H776.214C776.255 32.3682 776.424 32.5915 776.72 32.7646C777.016 32.9378 777.362 33.0244 777.759 33.0244C778.187 33.0244 778.527 32.9469 778.777 32.792C779.033 32.637 779.16 32.4388 779.16 32.1973C779.16 31.9694 779.058 31.7962 778.853 31.6777C778.647 31.5547 778.276 31.4453 777.738 31.3496L776.433 31.1172C775.53 30.9622 774.838 30.6341 774.354 30.1328C773.876 29.6315 773.637 28.9935 773.637 28.2188C773.637 27.2344 774.015 26.446 774.771 25.8535C775.528 25.2611 776.503 24.9648 777.697 24.9648C778.996 24.9648 780.003 25.2428 780.719 25.7988C781.434 26.3548 781.797 27.1159 781.806 28.082H779.16C779.151 27.7812 779.014 27.5443 778.75 27.3711C778.486 27.1934 778.153 27.1045 777.752 27.1045C777.374 27.1045 777.073 27.1774 776.85 27.3232C776.626 27.4691 776.515 27.665 776.515 27.9111C776.515 28.1436 776.619 28.3281 776.829 28.4648C777.039 28.6016 777.381 28.7109 777.854 28.793L779.208 29.0254C780.165 29.194 780.871 29.5107 781.327 29.9756C781.787 30.4359 782.018 31.0671 782.018 31.8691C782.018 32.8763 781.626 33.6784 780.842 34.2754C780.062 34.8724 779.017 35.1709 777.704 35.1709C776.373 35.1709 775.337 34.9043 774.594 34.3711C773.851 33.8333 773.477 33.0745 773.473 32.0947ZM790.07 32.6963V35H783.111V25.1357H790.07V27.4395H786.01V29.0322H789.817V31.1104H786.01V32.6963H790.07ZM798.745 35.1709C797.223 35.1709 796.027 34.7243 795.156 33.8311C794.286 32.9333 793.851 31.6777 793.851 30.0645C793.851 28.4512 794.286 27.1979 795.156 26.3047C796.027 25.4115 797.223 24.9648 798.745 24.9648C799.606 24.9648 800.383 25.138 801.076 25.4844C801.773 25.8307 802.323 26.3206 802.724 26.9541C803.125 27.5876 803.325 28.3053 803.325 29.1074H800.55C800.518 28.5469 800.336 28.0957 800.003 27.7539C799.67 27.4121 799.251 27.2412 798.745 27.2412C798.148 27.2412 797.674 27.4919 797.323 27.9932C796.977 28.4945 796.804 29.1826 796.804 30.0576C796.804 30.9463 796.977 31.6413 797.323 32.1426C797.67 32.6439 798.146 32.8945 798.752 32.8945C799.253 32.8945 799.668 32.7259 799.996 32.3887C800.329 32.0469 800.518 31.5911 800.563 31.0215H803.339C803.334 31.8281 803.134 32.5482 802.737 33.1816C802.345 33.8151 801.801 34.305 801.104 34.6514C800.411 34.9977 799.625 35.1709 798.745 35.1709ZM805.54 26.3389C806.433 25.4229 807.643 24.9648 809.17 24.9648C810.697 24.9648 811.907 25.4229 812.8 26.3389C813.693 27.2549 814.14 28.499 814.14 30.0713C814.14 31.6436 813.693 32.8877 812.8 33.8037C811.907 34.7152 810.697 35.1709 809.17 35.1709C807.639 35.1709 806.426 34.7152 805.533 33.8037C804.645 32.8877 804.2 31.6436 804.2 30.0713C804.2 28.499 804.647 27.2549 805.54 26.3389ZM810.633 28.0342C810.264 27.5283 809.776 27.2754 809.17 27.2754C808.564 27.2754 808.076 27.5283 807.707 28.0342C807.338 28.54 807.153 29.2191 807.153 30.0713C807.153 30.9189 807.336 31.5957 807.7 32.1016C808.069 32.6074 808.559 32.8604 809.17 32.8604C809.781 32.8604 810.268 32.6074 810.633 32.1016C811.002 31.5957 811.187 30.9189 811.187 30.0713C811.187 29.2191 811.002 28.54 810.633 28.0342ZM815.268 25.1357H819.485C820.994 25.1357 822.163 25.555 822.992 26.3936C823.822 27.2275 824.236 28.4284 824.236 29.9961C824.236 31.5729 823.817 32.8011 822.979 33.6807C822.145 34.5602 820.98 35 819.485 35H815.268V25.1357ZM818.166 27.4395V32.6963H819.075C820.547 32.6963 821.283 31.7962 821.283 29.9961C821.283 29.1712 821.09 28.54 820.702 28.1025C820.319 27.6605 819.777 27.4395 819.075 27.4395H818.166ZM832.33 32.6963V35H825.371V25.1357H832.33V27.4395H828.27V29.0322H832.077V31.1104H828.27V32.6963H832.33ZM839.248 35H836.35V25.1357H843.281V27.4395H839.248V29.333H842.898V31.5068H839.248V35ZM847.205 27.2754V29.7773H848.401C848.807 29.7773 849.126 29.6634 849.358 29.4355C849.595 29.2077 849.714 28.9069 849.714 28.5332C849.714 28.1641 849.593 27.8633 849.352 27.6309C849.11 27.3939 848.796 27.2754 848.408 27.2754H847.205ZM847.205 31.6914V35H844.307V25.1357H848.688C849.992 25.1357 850.981 25.4274 851.655 26.0107C852.334 26.5941 852.674 27.4189 852.674 28.4854C852.674 29.0824 852.533 29.6338 852.25 30.1396C851.972 30.6455 851.582 31.0192 851.081 31.2607L852.954 35H849.714L848.155 31.6914H847.205ZM856.748 35H853.85V25.1357H856.748V35ZM858.115 25.1357H862.333C863.841 25.1357 865.01 25.555 865.84 26.3936C866.669 27.2275 867.084 28.4284 867.084 29.9961C867.084 31.5729 866.665 32.8011 865.826 33.6807C864.992 34.5602 863.828 35 862.333 35H858.115V25.1357ZM861.014 27.4395V32.6963H861.923C863.395 32.6963 864.131 31.7962 864.131 29.9961C864.131 29.1712 863.937 28.54 863.55 28.1025C863.167 27.6605 862.625 27.4395 861.923 27.4395H861.014ZM874.18 35L873.667 33.0381H870.659L870.146 35H867.193L870.413 25.1357H874.05L877.27 35H874.18ZM872.136 27.4121L871.186 30.9941H873.141L872.19 27.4121H872.136ZM882.444 35H879.546V31.876L876.176 25.1357H879.272L881.002 29.1348H881.057L882.786 25.1357H885.814L882.444 31.876V35ZM890.668 35.2734C889.497 35.2734 888.535 34.9727 887.783 34.3711C887.036 33.7695 886.658 32.9971 886.648 32.0537H889.253C889.312 32.359 889.474 32.6074 889.738 32.7988C890.007 32.9902 890.324 33.0859 890.688 33.0859C891.099 33.0859 891.429 32.9561 891.68 32.6963C891.935 32.4365 892.062 32.1016 892.062 31.6914C892.062 31.2585 891.937 30.9098 891.687 30.6455C891.436 30.3812 891.103 30.249 890.688 30.249C890.41 30.249 890.153 30.3128 889.916 30.4404C889.679 30.5635 889.488 30.7389 889.342 30.9668H886.806L887.243 25.1357H894.141V27.3232H889.472L889.321 29.5107H889.376C889.558 29.137 889.836 28.8431 890.21 28.6289C890.588 28.4147 891.037 28.3076 891.557 28.3076C892.491 28.3076 893.261 28.6198 893.867 29.2441C894.473 29.8639 894.776 30.6569 894.776 31.623C894.776 32.7214 894.4 33.6055 893.648 34.2754C892.896 34.9408 891.903 35.2734 890.668 35.2734ZM900.061 35.2734C898.721 35.2734 897.661 34.8086 896.882 33.8789C896.103 32.9447 895.713 31.6663 895.713 30.0439C895.713 28.417 896.103 27.1455 896.882 26.2295C897.666 25.3135 898.725 24.8555 900.061 24.8555C901.396 24.8555 902.453 25.3135 903.232 26.2295C904.012 27.141 904.401 28.4102 904.401 30.0371C904.401 31.6595 904.012 32.9378 903.232 33.8721C902.453 34.8063 901.396 35.2734 900.061 35.2734ZM899.049 32.2793C899.304 32.7897 899.641 33.0449 900.061 33.0449C900.48 33.0449 900.815 32.7897 901.065 32.2793C901.321 31.7689 901.448 31.0238 901.448 30.0439C901.448 29.0641 901.323 28.3258 901.072 27.8291C900.822 27.3324 900.484 27.084 900.061 27.084C899.637 27.084 899.297 27.3324 899.042 27.8291C898.791 28.3258 898.666 29.0641 898.666 30.0439C898.666 31.0238 898.794 31.7689 899.049 32.2793ZM911.176 35H908.277V25.1357H915.209V27.4395H911.176V29.333H914.826V31.5068H911.176V35ZM917.335 26.3389C918.228 25.4229 919.438 24.9648 920.965 24.9648C922.492 24.9648 923.701 25.4229 924.595 26.3389C925.488 27.2549 925.935 28.499 925.935 30.0713C925.935 31.6436 925.488 32.8877 924.595 33.8037C923.701 34.7152 922.492 35.1709 920.965 35.1709C919.434 35.1709 918.221 34.7152 917.328 33.8037C916.439 32.8877 915.995 31.6436 915.995 30.0713C915.995 28.499 916.442 27.2549 917.335 26.3389ZM922.428 28.0342C922.059 27.5283 921.571 27.2754 920.965 27.2754C920.359 27.2754 919.871 27.5283 919.502 28.0342C919.133 28.54 918.948 29.2191 918.948 30.0713C918.948 30.9189 919.131 31.5957 919.495 32.1016C919.864 32.6074 920.354 32.8604 920.965 32.8604C921.576 32.8604 922.063 32.6074 922.428 32.1016C922.797 31.5957 922.981 30.9189 922.981 30.0713C922.981 29.2191 922.797 28.54 922.428 28.0342ZM929.961 27.2754V29.7773H931.157C931.563 29.7773 931.882 29.6634 932.114 29.4355C932.351 29.2077 932.47 28.9069 932.47 28.5332C932.47 28.1641 932.349 27.8633 932.107 27.6309C931.866 27.3939 931.551 27.2754 931.164 27.2754H929.961ZM929.961 31.6914V35H927.062V25.1357H931.444C932.748 25.1357 933.737 25.4274 934.411 26.0107C935.09 26.5941 935.43 27.4189 935.43 28.4854C935.43 29.0824 935.288 29.6338 935.006 30.1396C934.728 30.6455 934.338 31.0192 933.837 31.2607L935.71 35H932.47L930.911 31.6914H929.961ZM943.373 35.2734C942.202 35.2734 941.24 34.9727 940.488 34.3711C939.741 33.7695 939.363 32.9971 939.354 32.0537H941.958C942.017 32.359 942.179 32.6074 942.443 32.7988C942.712 32.9902 943.029 33.0859 943.394 33.0859C943.804 33.0859 944.134 32.9561 944.385 32.6963C944.64 32.4365 944.768 32.1016 944.768 31.6914C944.768 31.2585 944.642 30.9098 944.392 30.6455C944.141 30.3812 943.808 30.249 943.394 30.249C943.116 30.249 942.858 30.3128 942.621 30.4404C942.384 30.5635 942.193 30.7389 942.047 30.9668H939.511L939.948 25.1357H946.846V27.3232H942.177L942.026 29.5107H942.081C942.263 29.137 942.541 28.8431 942.915 28.6289C943.293 28.4147 943.742 28.3076 944.262 28.3076C945.196 28.3076 945.966 28.6198 946.572 29.2441C947.178 29.8639 947.481 30.6569 947.481 31.623C947.481 32.7214 947.105 33.6055 946.354 34.2754C945.602 34.9408 944.608 35.2734 943.373 35.2734ZM952.766 35.2734C951.426 35.2734 950.366 34.8086 949.587 33.8789C948.808 32.9447 948.418 31.6663 948.418 30.0439C948.418 28.417 948.808 27.1455 949.587 26.2295C950.371 25.3135 951.43 24.8555 952.766 24.8555C954.101 24.8555 955.158 25.3135 955.938 26.2295C956.717 27.141 957.106 28.4102 957.106 30.0371C957.106 31.6595 956.717 32.9378 955.938 33.8721C955.158 34.8063 954.101 35.2734 952.766 35.2734ZM951.754 32.2793C952.009 32.7897 952.346 33.0449 952.766 33.0449C953.185 33.0449 953.52 32.7897 953.771 32.2793C954.026 31.7689 954.153 31.0238 954.153 30.0439C954.153 29.0641 954.028 28.3258 953.777 27.8291C953.527 27.3324 953.189 27.084 952.766 27.084C952.342 27.084 952.002 27.3324 951.747 27.8291C951.496 28.3258 951.371 29.0641 951.371 30.0439C951.371 31.0238 951.499 31.7689 951.754 32.2793ZM962.11 25.5938C962.543 26.0677 962.76 26.7171 962.76 27.542C962.76 28.3669 962.543 29.0163 962.11 29.4902C961.677 29.9642 961.085 30.2012 960.333 30.2012C959.581 30.2012 958.989 29.9642 958.556 29.4902C958.123 29.0163 957.906 28.3669 957.906 27.542C957.906 26.7171 958.123 26.0677 958.556 25.5938C958.989 25.1198 959.581 24.8828 960.333 24.8828C961.085 24.8828 961.677 25.1198 962.11 25.5938ZM959.991 28.3281C960.073 28.5195 960.187 28.6152 960.333 28.6152C960.479 28.6152 960.59 28.5195 960.668 28.3281C960.75 28.1367 960.791 27.8678 960.791 27.5215C960.791 27.1751 960.75 26.9062 960.668 26.7148C960.59 26.5234 960.479 26.4277 960.333 26.4277C960.187 26.4277 960.073 26.5234 959.991 26.7148C959.914 26.9062 959.875 27.1751 959.875 27.5215C959.875 27.8678 959.914 28.1367 959.991 28.3281ZM961.393 35H959.273L963.122 29.7158L966.458 25.1357H968.577L964.838 30.2695L961.393 35ZM969.295 30.5703C969.728 31.0443 969.944 31.6937 969.944 32.5186C969.944 33.3434 969.728 33.9928 969.295 34.4668C968.862 34.9408 968.27 35.1777 967.518 35.1777C966.766 35.1777 966.173 34.9408 965.74 34.4668C965.307 33.9928 965.091 33.3434 965.091 32.5186C965.091 31.6937 965.307 31.0443 965.74 30.5703C966.173 30.0964 966.766 29.8594 967.518 29.8594C968.27 29.8594 968.862 30.0964 969.295 30.5703ZM967.176 33.3047C967.258 33.4961 967.372 33.5918 967.518 33.5918C967.663 33.5918 967.775 33.4961 967.853 33.3047C967.935 33.1133 967.976 32.8444 967.976 32.498C967.976 32.1517 967.935 31.8828 967.853 31.6914C967.775 31.5 967.663 31.4043 967.518 31.4043C967.372 31.4043 967.258 31.5 967.176 31.6914C967.098 31.8828 967.06 32.1517 967.06 32.498C967.06 32.8444 967.098 33.1133 967.176 33.3047ZM974.675 26.3389C975.568 25.4229 976.778 24.9648 978.305 24.9648C979.831 24.9648 981.041 25.4229 981.935 26.3389C982.828 27.2549 983.274 28.499 983.274 30.0713C983.274 31.6436 982.828 32.8877 981.935 33.8037C981.041 34.7152 979.831 35.1709 978.305 35.1709C976.773 35.1709 975.561 34.7152 974.668 33.8037C973.779 32.8877 973.335 31.6436 973.335 30.0713C973.335 28.499 973.782 27.2549 974.675 26.3389ZM979.768 28.0342C979.398 27.5283 978.911 27.2754 978.305 27.2754C977.699 27.2754 977.211 27.5283 976.842 28.0342C976.473 28.54 976.288 29.2191 976.288 30.0713C976.288 30.9189 976.47 31.5957 976.835 32.1016C977.204 32.6074 977.694 32.8604 978.305 32.8604C978.915 32.8604 979.403 32.6074 979.768 32.1016C980.137 31.5957 980.321 30.9189 980.321 30.0713C980.321 29.2191 980.137 28.54 979.768 28.0342ZM987.301 35H984.402V25.1357H991.334V27.4395H987.301V29.333H990.951V31.5068H987.301V35ZM995.258 35H992.359V25.1357H999.291V27.4395H995.258V29.333H998.908V31.5068H995.258V35Z" fill="white"/>
<path d="M1028.58 25.1357V31.165C1028.58 31.6846 1028.71 32.0833 1028.95 32.3613C1029.2 32.6348 1029.56 32.7715 1030.03 32.7715C1030.5 32.7715 1030.86 32.6348 1031.1 32.3613C1031.36 32.0833 1031.48 31.6846 1031.48 31.165V25.1357H1034.38V31.4863C1034.38 32.6074 1033.98 33.5029 1033.18 34.1729C1032.39 34.8382 1031.34 35.1709 1030.03 35.1709C1028.72 35.1709 1027.67 34.8382 1026.87 34.1729C1026.08 33.5029 1025.68 32.6074 1025.68 31.4863V25.1357H1028.58ZM1035.47 32.0947H1038.21C1038.25 32.3682 1038.42 32.5915 1038.72 32.7646C1039.02 32.9378 1039.36 33.0244 1039.76 33.0244C1040.19 33.0244 1040.53 32.9469 1040.78 32.792C1041.03 32.637 1041.16 32.4388 1041.16 32.1973C1041.16 31.9694 1041.06 31.7962 1040.85 31.6777C1040.65 31.5547 1040.28 31.4453 1039.74 31.3496L1038.43 31.1172C1037.53 30.9622 1036.84 30.6341 1036.35 30.1328C1035.88 29.6315 1035.64 28.9935 1035.64 28.2188C1035.64 27.2344 1036.01 26.446 1036.77 25.8535C1037.53 25.2611 1038.5 24.9648 1039.7 24.9648C1041 24.9648 1042 25.2428 1042.72 25.7988C1043.43 26.3548 1043.8 27.1159 1043.81 28.082H1041.16C1041.15 27.7812 1041.01 27.5443 1040.75 27.3711C1040.49 27.1934 1040.15 27.1045 1039.75 27.1045C1039.37 27.1045 1039.07 27.1774 1038.85 27.3232C1038.63 27.4691 1038.51 27.665 1038.51 27.9111C1038.51 28.1436 1038.62 28.3281 1038.83 28.4648C1039.04 28.6016 1039.38 28.7109 1039.85 28.793L1041.21 29.0254C1042.17 29.194 1042.87 29.5107 1043.33 29.9756C1043.79 30.4359 1044.02 31.0671 1044.02 31.8691C1044.02 32.8763 1043.63 33.6784 1042.84 34.2754C1042.06 34.8724 1041.02 35.1709 1039.7 35.1709C1038.37 35.1709 1037.34 34.9043 1036.59 34.3711C1035.85 33.8333 1035.48 33.0745 1035.47 32.0947ZM1052.07 32.6963V35H1045.11V25.1357H1052.07V27.4395H1048.01V29.0322H1051.82V31.1104H1048.01V32.6963H1052.07ZM1060.75 35.1709C1059.22 35.1709 1058.03 34.7243 1057.16 33.8311C1056.29 32.9333 1055.85 31.6777 1055.85 30.0645C1055.85 28.4512 1056.29 27.1979 1057.16 26.3047C1058.03 25.4115 1059.22 24.9648 1060.75 24.9648C1061.61 24.9648 1062.38 25.138 1063.08 25.4844C1063.77 25.8307 1064.32 26.3206 1064.72 26.9541C1065.12 27.5876 1065.33 28.3053 1065.33 29.1074H1062.55C1062.52 28.5469 1062.34 28.0957 1062 27.7539C1061.67 27.4121 1061.25 27.2412 1060.75 27.2412C1060.15 27.2412 1059.67 27.4919 1059.32 27.9932C1058.98 28.4945 1058.8 29.1826 1058.8 30.0576C1058.8 30.9463 1058.98 31.6413 1059.32 32.1426C1059.67 32.6439 1060.15 32.8945 1060.75 32.8945C1061.25 32.8945 1061.67 32.7259 1062 32.3887C1062.33 32.0469 1062.52 31.5911 1062.56 31.0215H1065.34C1065.33 31.8281 1065.13 32.5482 1064.74 33.1816C1064.35 33.8151 1063.8 34.305 1063.1 34.6514C1062.41 34.9977 1061.62 35.1709 1060.75 35.1709ZM1067.54 26.3389C1068.43 25.4229 1069.64 24.9648 1071.17 24.9648C1072.7 24.9648 1073.91 25.4229 1074.8 26.3389C1075.69 27.2549 1076.14 28.499 1076.14 30.0713C1076.14 31.6436 1075.69 32.8877 1074.8 33.8037C1073.91 34.7152 1072.7 35.1709 1071.17 35.1709C1069.64 35.1709 1068.43 34.7152 1067.53 33.8037C1066.64 32.8877 1066.2 31.6436 1066.2 30.0713C1066.2 28.499 1066.65 27.2549 1067.54 26.3389ZM1072.63 28.0342C1072.26 27.5283 1071.78 27.2754 1071.17 27.2754C1070.56 27.2754 1070.08 27.5283 1069.71 28.0342C1069.34 28.54 1069.15 29.2191 1069.15 30.0713C1069.15 30.9189 1069.34 31.5957 1069.7 32.1016C1070.07 32.6074 1070.56 32.8604 1071.17 32.8604C1071.78 32.8604 1072.27 32.6074 1072.63 32.1016C1073 31.5957 1073.19 30.9189 1073.19 30.0713C1073.19 29.2191 1073 28.54 1072.63 28.0342ZM1077.27 25.1357H1081.49C1082.99 25.1357 1084.16 25.555 1084.99 26.3936C1085.82 27.2275 1086.24 28.4284 1086.24 29.9961C1086.24 31.5729 1085.82 32.8011 1084.98 33.6807C1084.14 34.5602 1082.98 35 1081.49 35H1077.27V25.1357ZM1080.17 27.4395V32.6963H1081.08C1082.55 32.6963 1083.28 31.7962 1083.28 29.9961C1083.28 29.1712 1083.09 28.54 1082.7 28.1025C1082.32 27.6605 1081.78 27.4395 1081.08 27.4395H1080.17ZM1094.33 32.6963V35H1087.37V25.1357H1094.33V27.4395H1090.27V29.0322H1094.08V31.1104H1090.27V32.6963H1094.33ZM1101.25 35H1098.35V25.1357H1105.28V27.4395H1101.25V29.333H1104.9V31.5068H1101.25V35ZM1109.21 27.2754V29.7773H1110.4C1110.81 29.7773 1111.13 29.6634 1111.36 29.4355C1111.6 29.2077 1111.71 28.9069 1111.71 28.5332C1111.71 28.1641 1111.59 27.8633 1111.35 27.6309C1111.11 27.3939 1110.8 27.2754 1110.41 27.2754H1109.21ZM1109.21 31.6914V35H1106.31V25.1357H1110.69C1111.99 25.1357 1112.98 25.4274 1113.66 26.0107C1114.33 26.5941 1114.67 27.4189 1114.67 28.4854C1114.67 29.0824 1114.53 29.6338 1114.25 30.1396C1113.97 30.6455 1113.58 31.0192 1113.08 31.2607L1114.95 35H1111.71L1110.16 31.6914H1109.21ZM1118.75 35H1115.85V25.1357H1118.75V35ZM1120.12 25.1357H1124.33C1125.84 25.1357 1127.01 25.555 1127.84 26.3936C1128.67 27.2275 1129.08 28.4284 1129.08 29.9961C1129.08 31.5729 1128.66 32.8011 1127.83 33.6807C1126.99 34.5602 1125.83 35 1124.33 35H1120.12V25.1357ZM1123.01 27.4395V32.6963H1123.92C1125.39 32.6963 1126.13 31.7962 1126.13 29.9961C1126.13 29.1712 1125.94 28.54 1125.55 28.1025C1125.17 27.6605 1124.62 27.4395 1123.92 27.4395H1123.01ZM1136.18 35L1135.67 33.0381H1132.66L1132.15 35H1129.19L1132.41 25.1357H1136.05L1139.27 35H1136.18ZM1134.14 27.4121L1133.19 30.9941H1135.14L1134.19 27.4121H1134.14ZM1144.44 35H1141.55V31.876L1138.18 25.1357H1141.27L1143 29.1348H1143.06L1144.79 25.1357H1147.81L1144.44 31.876V35ZM1152.67 35.2734C1151.5 35.2734 1150.54 34.9727 1149.78 34.3711C1149.04 33.7695 1148.66 32.9971 1148.65 32.0537H1151.25C1151.31 32.359 1151.47 32.6074 1151.74 32.7988C1152.01 32.9902 1152.32 33.0859 1152.69 33.0859C1153.1 33.0859 1153.43 32.9561 1153.68 32.6963C1153.93 32.4365 1154.06 32.1016 1154.06 31.6914C1154.06 31.2585 1153.94 30.9098 1153.69 30.6455C1153.44 30.3812 1153.1 30.249 1152.69 30.249C1152.41 30.249 1152.15 30.3128 1151.92 30.4404C1151.68 30.5635 1151.49 30.7389 1151.34 30.9668H1148.81L1149.24 25.1357H1156.14V27.3232H1151.47L1151.32 29.5107H1151.38C1151.56 29.137 1151.84 28.8431 1152.21 28.6289C1152.59 28.4147 1153.04 28.3076 1153.56 28.3076C1154.49 28.3076 1155.26 28.6198 1155.87 29.2441C1156.47 29.8639 1156.78 30.6569 1156.78 31.623C1156.78 32.7214 1156.4 33.6055 1155.65 34.2754C1154.9 34.9408 1153.9 35.2734 1152.67 35.2734ZM1162.06 35.2734C1160.72 35.2734 1159.66 34.8086 1158.88 33.8789C1158.1 32.9447 1157.71 31.6663 1157.71 30.0439C1157.71 28.417 1158.1 27.1455 1158.88 26.2295C1159.67 25.3135 1160.73 24.8555 1162.06 24.8555C1163.4 24.8555 1164.45 25.3135 1165.23 26.2295C1166.01 27.141 1166.4 28.4102 1166.4 30.0371C1166.4 31.6595 1166.01 32.9378 1165.23 33.8721C1164.45 34.8063 1163.4 35.2734 1162.06 35.2734ZM1161.05 32.2793C1161.3 32.7897 1161.64 33.0449 1162.06 33.0449C1162.48 33.0449 1162.81 32.7897 1163.07 32.2793C1163.32 31.7689 1163.45 31.0238 1163.45 30.0439C1163.45 29.0641 1163.32 28.3258 1163.07 27.8291C1162.82 27.3324 1162.48 27.084 1162.06 27.084C1161.64 27.084 1161.3 27.3324 1161.04 27.8291C1160.79 28.3258 1160.67 29.0641 1160.67 30.0439C1160.67 31.0238 1160.79 31.7689 1161.05 32.2793ZM1173.18 35H1170.28V25.1357H1177.21V27.4395H1173.18V29.333H1176.83V31.5068H1173.18V35ZM1179.33 26.3389C1180.23 25.4229 1181.44 24.9648 1182.96 24.9648C1184.49 24.9648 1185.7 25.4229 1186.59 26.3389C1187.49 27.2549 1187.93 28.499 1187.93 30.0713C1187.93 31.6436 1187.49 32.8877 1186.59 33.8037C1185.7 34.7152 1184.49 35.1709 1182.96 35.1709C1181.43 35.1709 1180.22 34.7152 1179.33 33.8037C1178.44 32.8877 1178 31.6436 1178 30.0713C1178 28.499 1178.44 27.2549 1179.33 26.3389ZM1184.43 28.0342C1184.06 27.5283 1183.57 27.2754 1182.96 27.2754C1182.36 27.2754 1181.87 27.5283 1181.5 28.0342C1181.13 28.54 1180.95 29.2191 1180.95 30.0713C1180.95 30.9189 1181.13 31.5957 1181.5 32.1016C1181.86 32.6074 1182.35 32.8604 1182.96 32.8604C1183.58 32.8604 1184.06 32.6074 1184.43 32.1016C1184.8 31.5957 1184.98 30.9189 1184.98 30.0713C1184.98 29.2191 1184.8 28.54 1184.43 28.0342ZM1191.96 27.2754V29.7773H1193.16C1193.56 29.7773 1193.88 29.6634 1194.11 29.4355C1194.35 29.2077 1194.47 28.9069 1194.47 28.5332C1194.47 28.1641 1194.35 27.8633 1194.11 27.6309C1193.87 27.3939 1193.55 27.2754 1193.16 27.2754H1191.96ZM1191.96 31.6914V35H1189.06V25.1357H1193.44C1194.75 25.1357 1195.74 25.4274 1196.41 26.0107C1197.09 26.5941 1197.43 27.4189 1197.43 28.4854C1197.43 29.0824 1197.29 29.6338 1197.01 30.1396C1196.73 30.6455 1196.34 31.0192 1195.84 31.2607L1197.71 35H1194.47L1192.91 31.6914H1191.96ZM1205.37 35.2734C1204.2 35.2734 1203.24 34.9727 1202.49 34.3711C1201.74 33.7695 1201.36 32.9971 1201.35 32.0537H1203.96C1204.02 32.359 1204.18 32.6074 1204.44 32.7988C1204.71 32.9902 1205.03 33.0859 1205.39 33.0859C1205.8 33.0859 1206.13 32.9561 1206.38 32.6963C1206.64 32.4365 1206.77 32.1016 1206.77 31.6914C1206.77 31.2585 1206.64 30.9098 1206.39 30.6455C1206.14 30.3812 1205.81 30.249 1205.39 30.249C1205.12 30.249 1204.86 30.3128 1204.62 30.4404C1204.38 30.5635 1204.19 30.7389 1204.05 30.9668H1201.51L1201.95 25.1357H1208.85V27.3232H1204.18L1204.03 29.5107H1204.08C1204.26 29.137 1204.54 28.8431 1204.92 28.6289C1205.29 28.4147 1205.74 28.3076 1206.26 28.3076C1207.2 28.3076 1207.97 28.6198 1208.57 29.2441C1209.18 29.8639 1209.48 30.6569 1209.48 31.623C1209.48 32.7214 1209.11 33.6055 1208.35 34.2754C1207.6 34.9408 1206.61 35.2734 1205.37 35.2734ZM1214.77 35.2734C1213.43 35.2734 1212.37 34.8086 1211.59 33.8789C1210.81 32.9447 1210.42 31.6663 1210.42 30.0439C1210.42 28.417 1210.81 27.1455 1211.59 26.2295C1212.37 25.3135 1213.43 24.8555 1214.77 24.8555C1216.1 24.8555 1217.16 25.3135 1217.94 26.2295C1218.72 27.141 1219.11 28.4102 1219.11 30.0371C1219.11 31.6595 1218.72 32.9378 1217.94 33.8721C1217.16 34.8063 1216.1 35.2734 1214.77 35.2734ZM1213.75 32.2793C1214.01 32.7897 1214.35 33.0449 1214.77 33.0449C1215.18 33.0449 1215.52 32.7897 1215.77 32.2793C1216.03 31.7689 1216.15 31.0238 1216.15 30.0439C1216.15 29.0641 1216.03 28.3258 1215.78 27.8291C1215.53 27.3324 1215.19 27.084 1214.77 27.084C1214.34 27.084 1214 27.3324 1213.75 27.8291C1213.5 28.3258 1213.37 29.0641 1213.37 30.0439C1213.37 31.0238 1213.5 31.7689 1213.75 32.2793ZM1224.11 25.5938C1224.54 26.0677 1224.76 26.7171 1224.76 27.542C1224.76 28.3669 1224.54 29.0163 1224.11 29.4902C1223.68 29.9642 1223.08 30.2012 1222.33 30.2012C1221.58 30.2012 1220.99 29.9642 1220.56 29.4902C1220.12 29.0163 1219.91 28.3669 1219.91 27.542C1219.91 26.7171 1220.12 26.0677 1220.56 25.5938C1220.99 25.1198 1221.58 24.8828 1222.33 24.8828C1223.08 24.8828 1223.68 25.1198 1224.11 25.5938ZM1221.99 28.3281C1222.07 28.5195 1222.19 28.6152 1222.33 28.6152C1222.48 28.6152 1222.59 28.5195 1222.67 28.3281C1222.75 28.1367 1222.79 27.8678 1222.79 27.5215C1222.79 27.1751 1222.75 26.9062 1222.67 26.7148C1222.59 26.5234 1222.48 26.4277 1222.33 26.4277C1222.19 26.4277 1222.07 26.5234 1221.99 26.7148C1221.91 26.9062 1221.88 27.1751 1221.88 27.5215C1221.88 27.8678 1221.91 28.1367 1221.99 28.3281ZM1223.39 35H1221.27L1225.12 29.7158L1228.46 25.1357H1230.58L1226.84 30.2695L1223.39 35ZM1231.29 30.5703C1231.73 31.0443 1231.94 31.6937 1231.94 32.5186C1231.94 33.3434 1231.73 33.9928 1231.29 34.4668C1230.86 34.9408 1230.27 35.1777 1229.52 35.1777C1228.77 35.1777 1228.17 34.9408 1227.74 34.4668C1227.31 33.9928 1227.09 33.3434 1227.09 32.5186C1227.09 31.6937 1227.31 31.0443 1227.74 30.5703C1228.17 30.0964 1228.77 29.8594 1229.52 29.8594C1230.27 29.8594 1230.86 30.0964 1231.29 30.5703ZM1229.18 33.3047C1229.26 33.4961 1229.37 33.5918 1229.52 33.5918C1229.66 33.5918 1229.78 33.4961 1229.85 33.3047C1229.93 33.1133 1229.98 32.8444 1229.98 32.498C1229.98 32.1517 1229.93 31.8828 1229.85 31.6914C1229.78 31.5 1229.66 31.4043 1229.52 31.4043C1229.37 31.4043 1229.26 31.5 1229.18 31.6914C1229.1 31.8828 1229.06 32.1517 1229.06 32.498C1229.06 32.8444 1229.1 33.1133 1229.18 33.3047ZM1236.67 26.3389C1237.57 25.4229 1238.78 24.9648 1240.3 24.9648C1241.83 24.9648 1243.04 25.4229 1243.93 26.3389C1244.83 27.2549 1245.27 28.499 1245.27 30.0713C1245.27 31.6436 1244.83 32.8877 1243.93 33.8037C1243.04 34.7152 1241.83 35.1709 1240.3 35.1709C1238.77 35.1709 1237.56 34.7152 1236.67 33.8037C1235.78 32.8877 1235.33 31.6436 1235.33 30.0713C1235.33 28.499 1235.78 27.2549 1236.67 26.3389ZM1241.77 28.0342C1241.4 27.5283 1240.91 27.2754 1240.3 27.2754C1239.7 27.2754 1239.21 27.5283 1238.84 28.0342C1238.47 28.54 1238.29 29.2191 1238.29 30.0713C1238.29 30.9189 1238.47 31.5957 1238.83 32.1016C1239.2 32.6074 1239.69 32.8604 1240.3 32.8604C1240.92 32.8604 1241.4 32.6074 1241.77 32.1016C1242.14 31.5957 1242.32 30.9189 1242.32 30.0713C1242.32 29.2191 1242.14 28.54 1241.77 28.0342ZM1249.3 35H1246.4V25.1357H1253.33V27.4395H1249.3V29.333H1252.95V31.5068H1249.3V35ZM1257.26 35H1254.36V25.1357H1261.29V27.4395H1257.26V29.333H1260.91V31.5068H1257.26V35Z" fill="white"/>
<path d="M1290.58 25.1357V31.165C1290.58 31.6846 1290.71 32.0833 1290.95 32.3613C1291.2 32.6348 1291.56 32.7715 1292.03 32.7715C1292.5 32.7715 1292.86 32.6348 1293.1 32.3613C1293.36 32.0833 1293.48 31.6846 1293.48 31.165V25.1357H1296.38V31.4863C1296.38 32.6074 1295.98 33.5029 1295.18 34.1729C1294.39 34.8382 1293.34 35.1709 1292.03 35.1709C1290.72 35.1709 1289.67 34.8382 1288.87 34.1729C1288.08 33.5029 1287.68 32.6074 1287.68 31.4863V25.1357H1290.58ZM1297.47 32.0947H1300.21C1300.25 32.3682 1300.42 32.5915 1300.72 32.7646C1301.02 32.9378 1301.36 33.0244 1301.76 33.0244C1302.19 33.0244 1302.53 32.9469 1302.78 32.792C1303.03 32.637 1303.16 32.4388 1303.16 32.1973C1303.16 31.9694 1303.06 31.7962 1302.85 31.6777C1302.65 31.5547 1302.28 31.4453 1301.74 31.3496L1300.43 31.1172C1299.53 30.9622 1298.84 30.6341 1298.35 30.1328C1297.88 29.6315 1297.64 28.9935 1297.64 28.2188C1297.64 27.2344 1298.01 26.446 1298.77 25.8535C1299.53 25.2611 1300.5 24.9648 1301.7 24.9648C1303 24.9648 1304 25.2428 1304.72 25.7988C1305.43 26.3548 1305.8 27.1159 1305.81 28.082H1303.16C1303.15 27.7812 1303.01 27.5443 1302.75 27.3711C1302.49 27.1934 1302.15 27.1045 1301.75 27.1045C1301.37 27.1045 1301.07 27.1774 1300.85 27.3232C1300.63 27.4691 1300.51 27.665 1300.51 27.9111C1300.51 28.1436 1300.62 28.3281 1300.83 28.4648C1301.04 28.6016 1301.38 28.7109 1301.85 28.793L1303.21 29.0254C1304.17 29.194 1304.87 29.5107 1305.33 29.9756C1305.79 30.4359 1306.02 31.0671 1306.02 31.8691C1306.02 32.8763 1305.63 33.6784 1304.84 34.2754C1304.06 34.8724 1303.02 35.1709 1301.7 35.1709C1300.37 35.1709 1299.34 34.9043 1298.59 34.3711C1297.85 33.8333 1297.48 33.0745 1297.47 32.0947ZM1314.07 32.6963V35H1307.11V25.1357H1314.07V27.4395H1310.01V29.0322H1313.82V31.1104H1310.01V32.6963H1314.07ZM1322.75 35.1709C1321.22 35.1709 1320.03 34.7243 1319.16 33.8311C1318.29 32.9333 1317.85 31.6777 1317.85 30.0645C1317.85 28.4512 1318.29 27.1979 1319.16 26.3047C1320.03 25.4115 1321.22 24.9648 1322.75 24.9648C1323.61 24.9648 1324.38 25.138 1325.08 25.4844C1325.77 25.8307 1326.32 26.3206 1326.72 26.9541C1327.12 27.5876 1327.33 28.3053 1327.33 29.1074H1324.55C1324.52 28.5469 1324.34 28.0957 1324 27.7539C1323.67 27.4121 1323.25 27.2412 1322.75 27.2412C1322.15 27.2412 1321.67 27.4919 1321.32 27.9932C1320.98 28.4945 1320.8 29.1826 1320.8 30.0576C1320.8 30.9463 1320.98 31.6413 1321.32 32.1426C1321.67 32.6439 1322.15 32.8945 1322.75 32.8945C1323.25 32.8945 1323.67 32.7259 1324 32.3887C1324.33 32.0469 1324.52 31.5911 1324.56 31.0215H1327.34C1327.33 31.8281 1327.13 32.5482 1326.74 33.1816C1326.35 33.8151 1325.8 34.305 1325.1 34.6514C1324.41 34.9977 1323.62 35.1709 1322.75 35.1709ZM1329.54 26.3389C1330.43 25.4229 1331.64 24.9648 1333.17 24.9648C1334.7 24.9648 1335.91 25.4229 1336.8 26.3389C1337.69 27.2549 1338.14 28.499 1338.14 30.0713C1338.14 31.6436 1337.69 32.8877 1336.8 33.8037C1335.91 34.7152 1334.7 35.1709 1333.17 35.1709C1331.64 35.1709 1330.43 34.7152 1329.53 33.8037C1328.64 32.8877 1328.2 31.6436 1328.2 30.0713C1328.2 28.499 1328.65 27.2549 1329.54 26.3389ZM1334.63 28.0342C1334.26 27.5283 1333.78 27.2754 1333.17 27.2754C1332.56 27.2754 1332.08 27.5283 1331.71 28.0342C1331.34 28.54 1331.15 29.2191 1331.15 30.0713C1331.15 30.9189 1331.34 31.5957 1331.7 32.1016C1332.07 32.6074 1332.56 32.8604 1333.17 32.8604C1333.78 32.8604 1334.27 32.6074 1334.63 32.1016C1335 31.5957 1335.19 30.9189 1335.19 30.0713C1335.19 29.2191 1335 28.54 1334.63 28.0342ZM1339.27 25.1357H1343.49C1344.99 25.1357 1346.16 25.555 1346.99 26.3936C1347.82 27.2275 1348.24 28.4284 1348.24 29.9961C1348.24 31.5729 1347.82 32.8011 1346.98 33.6807C1346.14 34.5602 1344.98 35 1343.49 35H1339.27V25.1357ZM1342.17 27.4395V32.6963H1343.08C1344.55 32.6963 1345.28 31.7962 1345.28 29.9961C1345.28 29.1712 1345.09 28.54 1344.7 28.1025C1344.32 27.6605 1343.78 27.4395 1343.08 27.4395H1342.17ZM1356.33 32.6963V35H1349.37V25.1357H1356.33V27.4395H1352.27V29.0322H1356.08V31.1104H1352.27V32.6963H1356.33ZM1363.25 35H1360.35V25.1357H1367.28V27.4395H1363.25V29.333H1366.9V31.5068H1363.25V35ZM1371.21 27.2754V29.7773H1372.4C1372.81 29.7773 1373.13 29.6634 1373.36 29.4355C1373.6 29.2077 1373.71 28.9069 1373.71 28.5332C1373.71 28.1641 1373.59 27.8633 1373.35 27.6309C1373.11 27.3939 1372.8 27.2754 1372.41 27.2754H1371.21ZM1371.21 31.6914V35H1368.31V25.1357H1372.69C1373.99 25.1357 1374.98 25.4274 1375.66 26.0107C1376.33 26.5941 1376.67 27.4189 1376.67 28.4854C1376.67 29.0824 1376.53 29.6338 1376.25 30.1396C1375.97 30.6455 1375.58 31.0192 1375.08 31.2607L1376.95 35H1373.71L1372.16 31.6914H1371.21ZM1380.75 35H1377.85V25.1357H1380.75V35ZM1382.12 25.1357H1386.33C1387.84 25.1357 1389.01 25.555 1389.84 26.3936C1390.67 27.2275 1391.08 28.4284 1391.08 29.9961C1391.08 31.5729 1390.66 32.8011 1389.83 33.6807C1388.99 34.5602 1387.83 35 1386.33 35H1382.12V25.1357ZM1385.01 27.4395V32.6963H1385.92C1387.39 32.6963 1388.13 31.7962 1388.13 29.9961C1388.13 29.1712 1387.94 28.54 1387.55 28.1025C1387.17 27.6605 1386.62 27.4395 1385.92 27.4395H1385.01ZM1398.18 35L1397.67 33.0381H1394.66L1394.15 35H1391.19L1394.41 25.1357H1398.05L1401.27 35H1398.18ZM1396.14 27.4121L1395.19 30.9941H1397.14L1396.19 27.4121H1396.14ZM1406.44 35H1403.55V31.876L1400.18 25.1357H1403.27L1405 29.1348H1405.06L1406.79 25.1357H1409.81L1406.44 31.876V35ZM1414.67 35.2734C1413.5 35.2734 1412.54 34.9727 1411.78 34.3711C1411.04 33.7695 1410.66 32.9971 1410.65 32.0537H1413.25C1413.31 32.359 1413.47 32.6074 1413.74 32.7988C1414.01 32.9902 1414.32 33.0859 1414.69 33.0859C1415.1 33.0859 1415.43 32.9561 1415.68 32.6963C1415.93 32.4365 1416.06 32.1016 1416.06 31.6914C1416.06 31.2585 1415.94 30.9098 1415.69 30.6455C1415.44 30.3812 1415.1 30.249 1414.69 30.249C1414.41 30.249 1414.15 30.3128 1413.92 30.4404C1413.68 30.5635 1413.49 30.7389 1413.34 30.9668H1410.81L1411.24 25.1357H1418.14V27.3232H1413.47L1413.32 29.5107H1413.38C1413.56 29.137 1413.84 28.8431 1414.21 28.6289C1414.59 28.4147 1415.04 28.3076 1415.56 28.3076C1416.49 28.3076 1417.26 28.6198 1417.87 29.2441C1418.47 29.8639 1418.78 30.6569 1418.78 31.623C1418.78 32.7214 1418.4 33.6055 1417.65 34.2754C1416.9 34.9408 1415.9 35.2734 1414.67 35.2734ZM1424.06 35.2734C1422.72 35.2734 1421.66 34.8086 1420.88 33.8789C1420.1 32.9447 1419.71 31.6663 1419.71 30.0439C1419.71 28.417 1420.1 27.1455 1420.88 26.2295C1421.67 25.3135 1422.73 24.8555 1424.06 24.8555C1425.4 24.8555 1426.45 25.3135 1427.23 26.2295C1428.01 27.141 1428.4 28.4102 1428.4 30.0371C1428.4 31.6595 1428.01 32.9378 1427.23 33.8721C1426.45 34.8063 1425.4 35.2734 1424.06 35.2734ZM1423.05 32.2793C1423.3 32.7897 1423.64 33.0449 1424.06 33.0449C1424.48 33.0449 1424.81 32.7897 1425.07 32.2793C1425.32 31.7689 1425.45 31.0238 1425.45 30.0439C1425.45 29.0641 1425.32 28.3258 1425.07 27.8291C1424.82 27.3324 1424.48 27.084 1424.06 27.084C1423.64 27.084 1423.3 27.3324 1423.04 27.8291C1422.79 28.3258 1422.67 29.0641 1422.67 30.0439C1422.67 31.0238 1422.79 31.7689 1423.05 32.2793ZM1435.18 35H1432.28V25.1357H1439.21V27.4395H1435.18V29.333H1438.83V31.5068H1435.18V35ZM1441.33 26.3389C1442.23 25.4229 1443.44 24.9648 1444.96 24.9648C1446.49 24.9648 1447.7 25.4229 1448.59 26.3389C1449.49 27.2549 1449.93 28.499 1449.93 30.0713C1449.93 31.6436 1449.49 32.8877 1448.59 33.8037C1447.7 34.7152 1446.49 35.1709 1444.96 35.1709C1443.43 35.1709 1442.22 34.7152 1441.33 33.8037C1440.44 32.8877 1440 31.6436 1440 30.0713C1440 28.499 1440.44 27.2549 1441.33 26.3389ZM1446.43 28.0342C1446.06 27.5283 1445.57 27.2754 1444.96 27.2754C1444.36 27.2754 1443.87 27.5283 1443.5 28.0342C1443.13 28.54 1442.95 29.2191 1442.95 30.0713C1442.95 30.9189 1443.13 31.5957 1443.5 32.1016C1443.86 32.6074 1444.35 32.8604 1444.96 32.8604C1445.58 32.8604 1446.06 32.6074 1446.43 32.1016C1446.8 31.5957 1446.98 30.9189 1446.98 30.0713C1446.98 29.2191 1446.8 28.54 1446.43 28.0342ZM1453.96 27.2754V29.7773H1455.16C1455.56 29.7773 1455.88 29.6634 1456.11 29.4355C1456.35 29.2077 1456.47 28.9069 1456.47 28.5332C1456.47 28.1641 1456.35 27.8633 1456.11 27.6309C1455.87 27.3939 1455.55 27.2754 1455.16 27.2754H1453.96ZM1453.96 31.6914V35H1451.06V25.1357H1455.44C1456.75 25.1357 1457.74 25.4274 1458.41 26.0107C1459.09 26.5941 1459.43 27.4189 1459.43 28.4854C1459.43 29.0824 1459.29 29.6338 1459.01 30.1396C1458.73 30.6455 1458.34 31.0192 1457.84 31.2607L1459.71 35H1456.47L1454.91 31.6914H1453.96ZM1467.37 35.2734C1466.2 35.2734 1465.24 34.9727 1464.49 34.3711C1463.74 33.7695 1463.36 32.9971 1463.35 32.0537H1465.96C1466.02 32.359 1466.18 32.6074 1466.44 32.7988C1466.71 32.9902 1467.03 33.0859 1467.39 33.0859C1467.8 33.0859 1468.13 32.9561 1468.38 32.6963C1468.64 32.4365 1468.77 32.1016 1468.77 31.6914C1468.77 31.2585 1468.64 30.9098 1468.39 30.6455C1468.14 30.3812 1467.81 30.249 1467.39 30.249C1467.12 30.249 1466.86 30.3128 1466.62 30.4404C1466.38 30.5635 1466.19 30.7389 1466.05 30.9668H1463.51L1463.95 25.1357H1470.85V27.3232H1466.18L1466.03 29.5107H1466.08C1466.26 29.137 1466.54 28.8431 1466.92 28.6289C1467.29 28.4147 1467.74 28.3076 1468.26 28.3076C1469.2 28.3076 1469.97 28.6198 1470.57 29.2441C1471.18 29.8639 1471.48 30.6569 1471.48 31.623C1471.48 32.7214 1471.11 33.6055 1470.35 34.2754C1469.6 34.9408 1468.61 35.2734 1467.37 35.2734ZM1476.77 35.2734C1475.43 35.2734 1474.37 34.8086 1473.59 33.8789C1472.81 32.9447 1472.42 31.6663 1472.42 30.0439C1472.42 28.417 1472.81 27.1455 1473.59 26.2295C1474.37 25.3135 1475.43 24.8555 1476.77 24.8555C1478.1 24.8555 1479.16 25.3135 1479.94 26.2295C1480.72 27.141 1481.11 28.4102 1481.11 30.0371C1481.11 31.6595 1480.72 32.9378 1479.94 33.8721C1479.16 34.8063 1478.1 35.2734 1476.77 35.2734ZM1475.75 32.2793C1476.01 32.7897 1476.35 33.0449 1476.77 33.0449C1477.18 33.0449 1477.52 32.7897 1477.77 32.2793C1478.03 31.7689 1478.15 31.0238 1478.15 30.0439C1478.15 29.0641 1478.03 28.3258 1477.78 27.8291C1477.53 27.3324 1477.19 27.084 1476.77 27.084C1476.34 27.084 1476 27.3324 1475.75 27.8291C1475.5 28.3258 1475.37 29.0641 1475.37 30.0439C1475.37 31.0238 1475.5 31.7689 1475.75 32.2793ZM1486.11 25.5938C1486.54 26.0677 1486.76 26.7171 1486.76 27.542C1486.76 28.3669 1486.54 29.0163 1486.11 29.4902C1485.68 29.9642 1485.08 30.2012 1484.33 30.2012C1483.58 30.2012 1482.99 29.9642 1482.56 29.4902C1482.12 29.0163 1481.91 28.3669 1481.91 27.542C1481.91 26.7171 1482.12 26.0677 1482.56 25.5938C1482.99 25.1198 1483.58 24.8828 1484.33 24.8828C1485.08 24.8828 1485.68 25.1198 1486.11 25.5938ZM1483.99 28.3281C1484.07 28.5195 1484.19 28.6152 1484.33 28.6152C1484.48 28.6152 1484.59 28.5195 1484.67 28.3281C1484.75 28.1367 1484.79 27.8678 1484.79 27.5215C1484.79 27.1751 1484.75 26.9062 1484.67 26.7148C1484.59 26.5234 1484.48 26.4277 1484.33 26.4277C1484.19 26.4277 1484.07 26.5234 1483.99 26.7148C1483.91 26.9062 1483.88 27.1751 1483.88 27.5215C1483.88 27.8678 1483.91 28.1367 1483.99 28.3281ZM1485.39 35H1483.27L1487.12 29.7158L1490.46 25.1357H1492.58L1488.84 30.2695L1485.39 35ZM1493.29 30.5703C1493.73 31.0443 1493.94 31.6937 1493.94 32.5186C1493.94 33.3434 1493.73 33.9928 1493.29 34.4668C1492.86 34.9408 1492.27 35.1777 1491.52 35.1777C1490.77 35.1777 1490.17 34.9408 1489.74 34.4668C1489.31 33.9928 1489.09 33.3434 1489.09 32.5186C1489.09 31.6937 1489.31 31.0443 1489.74 30.5703C1490.17 30.0964 1490.77 29.8594 1491.52 29.8594C1492.27 29.8594 1492.86 30.0964 1493.29 30.5703ZM1491.18 33.3047C1491.26 33.4961 1491.37 33.5918 1491.52 33.5918C1491.66 33.5918 1491.78 33.4961 1491.85 33.3047C1491.93 33.1133 1491.98 32.8444 1491.98 32.498C1491.98 32.1517 1491.93 31.8828 1491.85 31.6914C1491.78 31.5 1491.66 31.4043 1491.52 31.4043C1491.37 31.4043 1491.26 31.5 1491.18 31.6914C1491.1 31.8828 1491.06 32.1517 1491.06 32.498C1491.06 32.8444 1491.1 33.1133 1491.18 33.3047ZM1498.67 26.3389C1499.57 25.4229 1500.78 24.9648 1502.3 24.9648C1503.83 24.9648 1505.04 25.4229 1505.93 26.3389C1506.83 27.2549 1507.27 28.499 1507.27 30.0713C1507.27 31.6436 1506.83 32.8877 1505.93 33.8037C1505.04 34.7152 1503.83 35.1709 1502.3 35.1709C1500.77 35.1709 1499.56 34.7152 1498.67 33.8037C1497.78 32.8877 1497.33 31.6436 1497.33 30.0713C1497.33 28.499 1497.78 27.2549 1498.67 26.3389ZM1503.77 28.0342C1503.4 27.5283 1502.91 27.2754 1502.3 27.2754C1501.7 27.2754 1501.21 27.5283 1500.84 28.0342C1500.47 28.54 1500.29 29.2191 1500.29 30.0713C1500.29 30.9189 1500.47 31.5957 1500.83 32.1016C1501.2 32.6074 1501.69 32.8604 1502.3 32.8604C1502.92 32.8604 1503.4 32.6074 1503.77 32.1016C1504.14 31.5957 1504.32 30.9189 1504.32 30.0713C1504.32 29.2191 1504.14 28.54 1503.77 28.0342ZM1511.3 35H1508.4V25.1357H1515.33V27.4395H1511.3V29.333H1514.95V31.5068H1511.3V35ZM1519.26 35H1516.36V25.1357H1523.29V27.4395H1519.26V29.333H1522.91V31.5068H1519.26V35Z" fill="white"/>
</g>
<defs>
<clipPath id="clip0_106_399">
<rect width="1440" height="60" fill="white"/>
</clipPath>
</defs>
</svg>
