<svg width="27" height="24" viewBox="0 0 27 24" fill="none" xmlns="http://www.w3.org/2000/svg">
<path d="M4.99745 13C4.44516 12.9986 3.99859 12.5497 4 11.9974C4.00141 11.4452 4.45027 10.9986 5.00255 11L4.99745 13ZM25.7088 11.3458C26.0984 11.7373 26.0968 12.3704 25.7052 12.76L19.325 19.1077C18.9335 19.4972 18.3004 19.4956 17.9108 19.104C17.5213 18.7125 17.5229 18.0794 17.9145 17.6898L23.5857 12.0474L17.9433 6.37617C17.5538 5.98465 17.5554 5.35148 17.9469 4.96196C18.3385 4.57243 18.9716 4.57405 19.3611 4.96557L25.7088 11.3458ZM5.00255 11L25.0025 11.0511L24.9974 13.051L4.99745 13L5.00255 11Z" fill="white"/>
</svg>
